<svg width="1252" height="227" viewBox="0 0 1252 227" fill="none" xmlns="http://www.w3.org/2000/svg">
<path d="M214.701 222.106H189.559L168.466 175.209C157.77 151.037 133.791 135.503 107.206 135.503C80.6212 135.503 56.9217 151.037 46.2355 175.209L25.1423 222.106H0L48.544 113.639H166.157L214.701 222.106ZM73.6863 113.639H48.544L97.0973 5.17171H117.613L166.157 113.639H141.015L107.495 38.547L73.6863 113.639Z" fill="black"/>
<path d="M375.654 113.639H232.908V5.17171H299.371C327.11 5.17171 352.541 27.6103 354.561 55.2392C355.715 70.1983 350.801 83.7208 342.134 94.0828C355.138 97.5399 366.7 104.445 375.654 113.648V113.639ZM394.439 157.089C394.439 192.763 364.968 222.116 328.842 222.116H232.908V113.648H256.319V200.252H326.543C350.819 200.252 369.883 180.686 369.883 156.802C369.883 135.225 349.367 115.372 325.668 113.648H375.654C387.216 125.447 394.439 140.693 394.439 157.098V157.089ZM297.342 27.0357H288.675C270.468 27.0357 256.021 41.1328 256.021 59.2617C256.021 77.3906 270.468 91.775 288.675 91.775H296.476C314.395 91.775 329.419 78.5398 329.996 60.6983C330.573 41.9948 316.126 27.0357 297.342 27.0357Z" fill="black"/>
<path d="M513.495 5.17171C542.677 5.17171 568.397 29.0562 568.974 58.1124C569.551 88.6145 544.986 113.639 514.649 113.639H421.89V5.17171H513.495ZM445.301 222.116H421.89V113.648H445.301V222.116ZM510.898 91.775C528.528 91.775 543.552 78.5398 544.418 60.9856C545.284 42.5694 530.548 27.0357 512.052 27.0357H477.667C459.459 27.0357 445.012 41.7075 445.012 59.549C445.012 77.3906 459.459 91.775 477.667 91.775H510.898ZM571.292 222.116H544.995L486.044 113.648H512.918L571.292 222.116Z" fill="black"/>
<path d="M649.307 45.7392V113.639H625.896V45.7392C625.896 35.3772 617.23 27.0357 606.823 27.0357H585.441V5.17171H689.762V27.0357H668.38C657.684 27.0357 649.307 35.3772 649.307 45.7392ZM625.896 181.539V113.639H649.307V181.539C649.307 191.901 657.684 200.53 668.38 200.53H689.762V222.106H585.441V200.53H606.823C617.23 200.53 625.896 191.901 625.896 181.539Z" fill="black"/>
<path d="M776.443 5.17171C845.214 5.17171 894.056 50.9202 894.056 113.639H869.491C869.491 63.5715 833.085 27.0357 776.443 27.0357H740.326V113.639H716.915V5.17171H776.443ZM776.443 222.116H716.915V113.648H740.326V164.29C740.326 184.143 756.504 200.252 776.443 200.252C833.076 200.252 869.491 163.716 869.491 113.648H894.056C894.056 176.367 845.223 222.116 776.443 222.116Z" fill="black"/>
<path d="M1107.6 32.7914L1090.83 49.7709C1074.65 33.3753 1052.11 23.3006 1026.68 23.3006C975.816 23.3006 937.391 63.0061 937.391 113.648H912.826C912.826 49.4836 963.399 0 1026.68 0C1058.47 0 1087.07 12.3732 1107.59 32.8006L1107.6 32.7914ZM1114.53 187.582C1094.02 212.616 1062.52 227 1026.69 227C963.408 227 912.835 177.804 912.835 113.639H937.4C937.4 164.569 975.835 203.699 1026.69 203.699C1058.48 203.699 1085.64 188.453 1098.64 166.292C1105.87 153.919 1100.37 135.503 1085.35 135.503H1017.44V113.639H1138.52C1138.52 145.003 1130.43 168.016 1114.53 187.582Z" fill="black"/>
<path d="M1161.92 113.639V5.17171H1251.21V27.0357H1217.98C1199.19 27.0357 1185.32 40.5582 1185.32 59.2617C1185.32 77.9652 1199.19 91.775 1217.98 91.775H1251.21V113.639H1161.92ZM1161.92 222.106V113.639H1185.33V200.242H1251.22V222.106H1161.93H1161.92Z" fill="black"/>
</svg>
