<svg width="1920" height="1225" viewBox="0 0 1920 1225" fill="none" xmlns="http://www.w3.org/2000/svg">
<rect width="1920" height="1080" transform="translate(0 145)" fill="#FFFCFC"/>
<path d="M64.4 1135.3H70.65V1156.1C70.65 1157.3 70.7 1158.52 70.8 1159.75C70.9333 1160.98 71.2667 1162.1 71.8 1163.1C72.3667 1164.07 73.2 1164.87 74.3 1165.5C75.4333 1166.13 77.0167 1166.45 79.05 1166.45C81.0833 1166.45 82.65 1166.13 83.75 1165.5C84.8833 1164.87 85.7167 1164.07 86.25 1163.1C86.8167 1162.1 87.15 1160.98 87.25 1159.75C87.3833 1158.52 87.45 1157.3 87.45 1156.1V1135.3H93.7V1158.15C93.7 1160.45 93.35 1162.45 92.65 1164.15C91.95 1165.85 90.95 1167.28 89.65 1168.45C88.3833 1169.58 86.85 1170.43 85.05 1171C83.25 1171.57 81.25 1171.85 79.05 1171.85C76.85 1171.85 74.85 1171.57 73.05 1171C71.25 1170.43 69.7 1169.58 68.4 1168.45C67.1333 1167.28 66.15 1165.85 65.45 1164.15C64.75 1162.45 64.4 1160.45 64.4 1158.15V1135.3ZM104.984 1159.1C104.984 1160.47 105.217 1161.63 105.684 1162.6C106.151 1163.57 106.801 1164.37 107.634 1165C108.467 1165.6 109.417 1166.05 110.484 1166.35C111.584 1166.62 112.767 1166.75 114.034 1166.75C115.401 1166.75 116.567 1166.6 117.534 1166.3C118.501 1165.97 119.284 1165.55 119.884 1165.05C120.484 1164.55 120.917 1163.98 121.184 1163.35C121.451 1162.68 121.584 1162.02 121.584 1161.35C121.584 1159.98 121.267 1158.98 120.634 1158.35C120.034 1157.68 119.367 1157.22 118.634 1156.95C117.367 1156.48 115.884 1156.05 114.184 1155.65C112.517 1155.22 110.451 1154.67 107.984 1154C106.451 1153.6 105.167 1153.08 104.134 1152.45C103.134 1151.78 102.334 1151.05 101.734 1150.25C101.134 1149.45 100.701 1148.6 100.434 1147.7C100.201 1146.8 100.084 1145.88 100.084 1144.95C100.084 1143.15 100.451 1141.6 101.184 1140.3C101.951 1138.97 102.951 1137.87 104.184 1137C105.417 1136.13 106.817 1135.5 108.384 1135.1C109.951 1134.67 111.534 1134.45 113.134 1134.45C115.001 1134.45 116.751 1134.7 118.384 1135.2C120.051 1135.67 121.501 1136.38 122.734 1137.35C124.001 1138.32 125.001 1139.52 125.734 1140.95C126.467 1142.35 126.834 1143.98 126.834 1145.85H120.584C120.417 1143.55 119.634 1141.93 118.234 1141C116.834 1140.03 115.051 1139.55 112.884 1139.55C112.151 1139.55 111.401 1139.63 110.634 1139.8C109.867 1139.93 109.167 1140.18 108.534 1140.55C107.901 1140.88 107.367 1141.35 106.934 1141.95C106.534 1142.55 106.334 1143.3 106.334 1144.2C106.334 1145.47 106.717 1146.47 107.484 1147.2C108.284 1147.9 109.317 1148.43 110.584 1148.8C110.717 1148.83 111.234 1148.98 112.134 1149.25C113.067 1149.48 114.101 1149.75 115.234 1150.05C116.367 1150.35 117.467 1150.65 118.534 1150.95C119.634 1151.22 120.417 1151.42 120.884 1151.55C122.051 1151.92 123.067 1152.42 123.934 1153.05C124.801 1153.68 125.517 1154.42 126.084 1155.25C126.684 1156.05 127.117 1156.92 127.384 1157.85C127.684 1158.78 127.834 1159.72 127.834 1160.65C127.834 1162.65 127.417 1164.37 126.584 1165.8C125.784 1167.2 124.717 1168.35 123.384 1169.25C122.051 1170.15 120.534 1170.8 118.834 1171.2C117.134 1171.63 115.401 1171.85 113.634 1171.85C111.601 1171.85 109.684 1171.6 107.884 1171.1C106.084 1170.6 104.517 1169.83 103.184 1168.8C101.851 1167.77 100.784 1166.45 99.984 1164.85C99.184 1163.22 98.7673 1161.3 98.734 1159.1H104.984ZM129.256 1135.3H135.756L144.706 1163.55H144.806L153.956 1135.3H160.306L148.106 1171H141.156L129.256 1135.3Z" fill="#28A055"/>
<g clip-path="url(#clip0_43_7)">
<path opacity="0.5" d="M1989.62 138.23C1833.22 143.949 1672.04 182.082 1613.39 195.428C1554.74 207.821 1492.75 195.428 1450.79 204.961C1408.83 214.494 1407.87 220.691 1364.48 266.926C1323.47 311.255 1315.84 313.161 1226.67 318.405L1155.15 307.918L1112.71 313.638C1178.99 365.117 1194.25 416.119 1200.45 438.521C1206.65 460.924 1213.32 497.15 1226.67 515.739C1239.55 541.002 1258.62 540.049 1269.11 567.218C1293.91 638.716 1322.04 817.461 1331.58 882.286C1337.3 899.446 1341.12 914.698 1374.02 909.932C1387.37 908.025 1398.81 926.138 1412.16 947.588C1429.81 974.757 1482.26 1000.02 1522.31 1033.39C1529.47 1039.58 1655.83 1000.5 1683.96 999.543C1714.96 998.59 1736.42 988.103 1760.26 1022.42C1783.15 1052.45 1801.27 1103.93 1834.17 1104.41H1846.57C1860.39 1104.41 1878.99 1093.92 1900.93 1089.63L1989.62 1072.47V116.303V138.23Z" stroke="#28A055" stroke-width="0.485" stroke-miterlimit="10" stroke-linecap="round"/>
<path d="M1107.46 313.161C1161.82 302.675 1171.36 309.348 1208.08 309.825C1256.24 307.442 1307.26 310.302 1337.3 290.759M1386.89 315.545L1365.91 304.105C1336.35 308.395 1315.84 315.545 1284.37 313.161" stroke="#28A055" stroke-width="0.6" stroke-miterlimit="10" stroke-linecap="round"/>
<path d="M1989.62 961.411C1955.76 1011.94 1935.74 1013.37 1904.74 1009.08C1851.33 1009.55 1846.57 1010.03 1822.72 974.757L1784.58 918.512C1774.09 905.642 1760.74 898.492 1736.42 909.932C1662.98 946.634 1644.39 960.934 1572.38 984.767L1485.12 1010.03M1989.62 968.56L1970.55 986.673C1948.61 1009.08 1925.25 1017.18 1884.24 1012.41L1845.61 1007.65L1801.27 957.597L1772.66 923.755C1736.89 907.549 1712.57 926.138 1683.01 938.531L1588.12 974.757L1488.46 1005.26M1989.14 974.28L1961.96 996.206C1937.17 1015.75 1925.72 1014.8 1882.33 1015.75C1855.15 1017.66 1837.98 1022.9 1820.34 996.206L1782.67 946.634C1757.87 922.325 1745 923.755 1710.67 932.335L1615.78 969.037L1491.8 1002.88L1484.17 1008.6M1988.67 980.953L1963.87 1003.83C1942.41 1017.18 1927.15 1022.9 1894.25 1019.56L1853.72 1015.75C1829.88 1012.41 1817.96 999.066 1806.51 982.383L1775.52 943.298C1750.72 922.802 1733.08 925.185 1703.51 933.288L1618.16 968.084C1576.67 982.86 1527.08 996.683 1489.41 1006.22M1988.67 986.196L1971.5 1001.93C1951.47 1015.75 1941.93 1020.99 1914.28 1022.9L1866.59 1024.81C1835.12 1027.19 1822.72 1013.37 1813.66 1000.97L1779.33 952.831C1755.49 925.185 1732.6 927.568 1701.61 938.055C1658.21 954.261 1651.06 963.794 1615.78 975.234C1572.86 991.916 1529.47 1003.83 1498.47 1010.51M1989.14 998.113C1968.16 1019.56 1949.56 1024.81 1923.34 1028.62L1867.55 1031.96C1834.17 1035.29 1820.82 1019.56 1807.94 1002.88L1773.13 958.074C1748.34 933.765 1715.91 933.765 1695.88 942.821L1629.6 972.374L1548.54 1000.5L1495.61 1012.41" stroke="#28A055" stroke-width="0.364" stroke-miterlimit="10" stroke-linecap="round"/>
<path d="M1989.14 1009.08C1970.55 1025.28 1958.62 1031.96 1935.26 1033.86L1865.16 1041.01C1839.89 1040.06 1832.26 1032.43 1819.86 1019.56C1801.27 1003.83 1784.58 964.747 1765.98 950.924C1738.8 932.335 1718.3 936.624 1689.21 946.634L1620.54 975.71C1575.72 990.963 1534.71 1003.83 1491.32 1013.37M1990.1 1015.75C1973.88 1031.48 1959.1 1036.25 1935.74 1036.25L1861.83 1046.73C1834.17 1045.78 1823.2 1032.43 1812.71 1020.99L1775.52 969.99C1758.83 949.017 1736.89 933.288 1691.59 948.541L1612.44 980C1573.81 993.823 1534.71 1006.22 1496.57 1013.37" stroke="#28A055" stroke-width="0.364" stroke-miterlimit="10" stroke-linecap="round"/>
<path d="M1989.62 1022.9C1972.93 1039.58 1956.72 1039.58 1927.63 1043.39L1858.96 1052.93C1833.22 1052.93 1823.2 1043.39 1807.94 1025.28L1767.89 969.514C1740.71 941.868 1715.91 946.634 1687.78 955.691L1603.85 988.58C1575.24 1002.88 1520.41 1015.75 1498 1017.18" stroke="#28A055" stroke-width="0.364" stroke-miterlimit="10" stroke-linecap="round"/>
<path d="M1989.14 1032.43C1971.5 1043.87 1962.92 1046.73 1939.07 1048.16C1905.69 1050.54 1885.19 1060.08 1857.06 1061.03C1830.83 1061.03 1817.48 1046.25 1805.56 1029.57L1765.03 979.047C1746.43 960.934 1731.65 950.924 1686.35 963.317L1595.75 996.206C1568.09 1008.6 1523.27 1020.52 1504.19 1020.52M1989.14 1041.01C1975.31 1051.5 1961.01 1052.93 1935.26 1055.31C1908.08 1056.26 1882.81 1067.23 1862.78 1069.61C1832.74 1072.47 1815.1 1056.74 1804.6 1039.58L1767.41 986.673C1742.62 959.981 1718.3 961.411 1691.12 968.084L1593.36 1000.5C1576.67 1008.6 1518.02 1022.9 1505.63 1020.99" stroke="#28A055" stroke-width="0.364" stroke-miterlimit="10" stroke-linecap="round"/>
<path d="M1989.14 1048.16L1972.45 1057.69L1930.49 1062.94C1905.69 1064.84 1878.04 1075.33 1858.01 1077.71C1830.35 1077.71 1817.96 1069.61 1802.22 1050.54L1765.98 998.589C1745.95 980 1734.03 974.28 1706.38 975.71L1603.85 1000.97C1572.38 1013.37 1527.56 1026.71 1511.35 1025.28M1988.67 1055.31C1977.22 1065.8 1941.93 1068.18 1925.25 1070.56C1901.4 1070.56 1876.13 1082.48 1854.2 1083.91C1823.68 1082 1815.1 1075.33 1799.84 1051.5L1762.64 999.066C1739.75 977.617 1729.74 980 1705.42 980L1641.52 993.823C1593.36 1010.03 1536.14 1030.53 1523.27 1031.96" stroke="#28A055" stroke-width="0.364" stroke-miterlimit="10" stroke-linecap="round"/>
<path d="M1989.62 1063.41C1972.93 1072.47 1946.7 1080.1 1917.62 1081.53C1898.54 1081.53 1877.56 1092.01 1854.2 1093.44C1826.06 1093.44 1810.33 1077.71 1798.88 1062.94L1764.07 1010.03C1751.68 994.3 1736.42 984.767 1705.9 984.767C1675.38 988.58 1641.05 998.59 1610.05 1005.26L1525.65 1034.82" stroke="#28A055" stroke-width="0.364" stroke-miterlimit="10" stroke-linecap="round"/>
<path d="M1127.06 821.704L1265.82 944.681L1451.79 1119.14L1515.69 1178.72" stroke="#28A055" stroke-width="0.6" stroke-miterlimit="10" stroke-linecap="round"/>
<path d="M1116.52 797.918L1109.85 329.844M1525.65 1184.48C1539.48 1195.92 1562.37 1189.25 1575.72 1187.34L1984.37 1118.23L1989.62 1117.28M1526.61 1184.96C1528.04 1186.39 1526.61 1062.94 1526.61 1062.94" stroke="#28A055" stroke-width="0.5" stroke-miterlimit="10" stroke-linecap="round"/>
<path d="M1236.21 545.769C1288.19 543.385 1354.94 536.235 1398.34 531.946C1441.73 527.179 1458.89 542.909 1483.69 553.872C1495.61 558.638 1507.53 567.218 1524.22 593.434C1532.33 606.304 1545.68 651.109 1552.83 657.782C1582.4 681.615 1579.06 674.942 1544.73 670.175C1529.94 667.792 1502.76 601.537 1489.41 576.751C1484.64 567.218 1465.57 546.245 1446.97 546.245C1420.27 543.385 1358.28 542.909 1269.59 563.405L1265.3 564.835L1266.73 564.358" stroke="#28A055" stroke-width="0.6" stroke-miterlimit="10" stroke-linecap="round"/>
<path opacity="0.5" d="M1411.21 337.471C1446.02 378.94 1447.93 402.296 1458.9 421.839C1470.34 441.381 1475.11 463.307 1508.01 474.747C1553.79 484.757 1598.61 412.305 1627.22 384.183C1672.52 355.107 1722.11 361.78 1741.18 381.323C1760.74 400.866 1786.96 416.595 1804.6 431.372C1829.4 452.821 1846.57 491.907 1860.87 519.553C1875.18 547.198 1897.11 558.638 1913.32 576.274C1930.01 593.434 1941.93 610.593 1970.55 614.883L1991.53 617.267" stroke="#28A055" stroke-width="0.485" stroke-miterlimit="10" stroke-linecap="round"/>
<path opacity="0.5" d="M1989.62 164.922C1932.87 160.156 1885.19 162.539 1817.48 175.885C1749.29 188.755 1693.98 205.438 1650.58 220.214C1607.67 235.467 1570.48 228.317 1552.83 234.514C1512.78 251.673 1496.09 307.442 1473.2 336.517C1457.46 357.967 1446.5 367.023 1436.01 367.023M1409.78 337.471C1447.93 314.591 1465.57 274.076 1487.03 246.43C1508.49 224.504 1522.31 218.784 1550.93 212.588" stroke="#28A055" stroke-width="0.485" stroke-miterlimit="10" stroke-linecap="round"/>
<path opacity="0.5" d="M1401.2 312.685C1431.24 286.945 1446.02 257.87 1465.09 238.327C1484.64 218.784 1503.72 211.634 1536.62 206.868M1394.04 302.198C1423.13 283.132 1438.87 247.86 1463.66 226.41C1486.07 206.868 1500.86 204.008 1529.94 200.671" stroke="#28A055" stroke-width="0.485" stroke-miterlimit="10" stroke-linecap="round"/>
<path opacity="0.5" d="M1394.04 299.339C1417.89 281.702 1436.48 251.673 1457.46 231.654C1474.63 216.401 1491.32 205.438 1520.41 200.671M1395.95 312.208C1426.95 289.805 1446.5 250.243 1470.82 229.27C1491.32 212.111 1508.01 205.438 1546.63 202.578M1382.12 305.535C1417.41 285.992 1434.58 245.477 1462.71 221.644C1481.31 207.821 1500.86 197.811 1531.85 197.811" stroke="#28A055" stroke-width="0.485" stroke-miterlimit="10" stroke-linecap="round"/>
<path opacity="0.5" d="M1362.1 303.152C1391.66 284.086 1412.16 255.01 1431.24 234.514C1446.02 219.261 1474.15 197.811 1518.5 195.905L1596.7 183.512" stroke="#28A055" stroke-width="0.485" stroke-miterlimit="10" stroke-linecap="round"/>
<path opacity="0.5" d="M1350.18 300.768C1382.12 283.132 1401.2 251.673 1424.09 229.747C1446.97 207.821 1470.82 195.905 1508.49 194.951L1572.38 185.895M1338.25 295.525C1371.63 278.842 1397.86 235.944 1417.89 219.261C1436.96 204.008 1450.31 194.951 1496.09 193.045L1572.38 183.988" stroke="#28A055" stroke-width="0.485" stroke-miterlimit="10" stroke-linecap="round"/>
<path d="M1333.96 295.049L1338.25 299.338C1327.29 309.825 1312.03 310.778 1286.28 314.591H1238.12" stroke="#28A055" stroke-width="0.6" stroke-miterlimit="10" stroke-linecap="round"/>
<path opacity="0.5" d="M1572.38 180.652L1725.45 157.296L1870.89 135.846L1920.95 128.697L1989.14 119.163" stroke="#28A055" stroke-width="0.485" stroke-miterlimit="10" stroke-linecap="round"/>
<path d="M1481.31 191.615C1522.31 190.185 1569.52 185.418 1608.62 176.362C1645.82 171.119 1684.92 162.062 1724.5 157.296L1863.26 137.753L1931.92 128.22L1990.1 119.163V114.874" stroke="#28A055" stroke-width="0.6" stroke-miterlimit="10" stroke-linecap="round"/>
<path opacity="0.5" d="M1386.42 315.545C1364.48 307.442 1352.56 303.152 1316.8 312.685C1264.82 326.031 1229.53 355.107 1167.07 375.603L1159.92 378.463M1200.45 312.685C1179.47 314.591 1147.52 312.685 1116.52 321.741" stroke="#28A055" stroke-width="0.485" stroke-miterlimit="10" stroke-linecap="round"/>
<path opacity="0.5" d="M1412.16 339.377C1379.74 309.825 1357.33 309.825 1327.29 327.938C1289.14 347.481 1266.73 365.117 1214.28 381.323L1176.61 394.669L1171.36 395.146M1183.76 312.685C1168.98 312.685 1138.93 315.545 1114.62 322.218" stroke="#28A055" stroke-width="0.485" stroke-miterlimit="10" stroke-linecap="round"/>
<path opacity="0.5" d="M1512.78 238.327C1486.55 259.3 1462.71 315.545 1432.19 348.434M1524.22 225.934C1481.31 247.86 1467.48 293.619 1423.13 333.181" stroke="#28A055" stroke-width="0.485" stroke-miterlimit="10" stroke-linecap="round"/>
<path opacity="0.5" d="M1351.13 304.582C1319.66 318.881 1281.99 347.481 1245.75 364.64C1229.53 371.79 1202.83 383.23 1162.3 395.146M1331.58 309.348C1292.95 318.881 1257.67 346.051 1219.04 362.257C1202.83 369.407 1181.85 376.08 1167.07 380.846" stroke="#28A055" stroke-width="0.485" stroke-miterlimit="10" stroke-linecap="round"/>
<path opacity="0.5" d="M1336.35 306.965C1302.49 319.358 1278.65 340.331 1240.98 357.49C1224.77 365.117 1192.82 377.51 1159.44 386.089M1319.66 310.302C1292.95 318.881 1262.44 334.134 1235.73 348.434C1219.04 357.014 1185.66 369.407 1155.62 378.463" stroke="#28A055" stroke-width="0.485" stroke-miterlimit="10" stroke-linecap="round"/>
<path opacity="0.5" d="M1302.97 312.208C1276.26 317.451 1247.65 333.181 1222.38 345.574C1200.92 355.107 1167.07 367.023 1152.76 369.883M1283.42 312.685C1257.19 319.358 1236.69 330.798 1209.51 342.714C1185.67 352.247 1169.93 357.967 1145.13 365.117" stroke="#28A055" stroke-width="0.485" stroke-miterlimit="10" stroke-linecap="round"/>
<path opacity="0.5" d="M1267.68 311.732L1255.28 314.591C1219.04 328.414 1193.29 340.331 1173.74 348.434L1147.52 357.49L1142.75 359.874" stroke="#28A055" stroke-width="0.485" stroke-miterlimit="10" stroke-linecap="round"/>
<path opacity="0.5" d="M1258.14 312.208C1217.14 324.124 1183.76 340.807 1145.13 353.2M1245.75 312.685L1219.52 318.881C1195.2 326.508 1169.93 338.901 1137.03 348.434" stroke="#28A055" stroke-width="0.485" stroke-miterlimit="10" stroke-linecap="round"/>
<path opacity="0.5" d="M1236.21 312.685C1219.52 315.545 1205.69 319.358 1186.14 326.508L1153.24 337.947L1132.26 343.191M1223.81 312.208L1202.83 317.451C1176.13 324.124 1148.47 336.041 1130.83 338.901" stroke="#28A055" stroke-width="0.485" stroke-miterlimit="10" stroke-linecap="round"/>
<path opacity="0.5" d="M1209.51 312.685L1188.05 316.975C1168.02 321.265 1145.13 330.798 1126.54 334.134M1195.68 312.685C1183.76 315.545 1171.84 316.975 1160.39 319.358C1148.47 322.218 1133.69 327.938 1122.25 329.368" stroke="#28A055" stroke-width="0.485" stroke-miterlimit="10" stroke-linecap="round"/>
<path opacity="0.5" d="M1185.67 312.208L1161.82 314.591C1145.61 317.451 1131.31 321.741 1119.86 322.695M1176.13 310.302C1153.24 312.208 1136.07 315.068 1119.38 318.881" stroke="#28A055" stroke-width="0.485" stroke-miterlimit="10" stroke-linecap="round"/>
<path opacity="0.5" d="M1157.53 310.302C1147.52 312.208 1131.78 312.208 1121.77 314.591" stroke="#28A055" stroke-width="0.485" stroke-miterlimit="10" stroke-linecap="round"/>
<path d="M1431.24 357.967C1419.32 338.424 1402.63 324.601 1386.42 315.068" stroke="#28A055" stroke-width="0.6" stroke-miterlimit="10" stroke-linecap="round"/>
<path opacity="0.5" d="M1205.22 312.685C1161.82 315.545 1146.09 314.591 1119.86 319.358M1412.16 326.508C1439.34 307.442 1457.46 272.646 1476.54 248.337C1491.32 234.037 1503.72 222.121 1529.47 214.971M1989.62 143.473C1915.23 145.379 1842.75 168.735 1796.02 180.652" stroke="#28A055" stroke-width="0.485" stroke-miterlimit="10" stroke-linecap="round"/>
<path d="M1333.49 295.525C1312.98 309.348 1277.22 309.825 1260.05 311.732L1219.52 314.591" stroke="#28A055" stroke-width="0.6" stroke-miterlimit="10" stroke-linecap="round"/>
<path opacity="0.5" d="M1989.14 145.379C1937.64 148.716 1877.56 164.922 1830.35 176.362" stroke="#28A055" stroke-width="0.485" stroke-miterlimit="10" stroke-linecap="round"/>
<path d="M1233.83 545.292C1271.5 548.152 1343.02 533.375 1393.57 533.375C1421.7 529.562 1446.97 533.375 1474.63 547.675L1484.17 552.918M1518.02 586.284L1529.47 591.527C1549.02 620.126 1548.06 641.576 1560.94 649.202C1568.09 655.399 1548.54 640.623 1537.1 638.239" stroke="#28A055" stroke-width="0.6" stroke-miterlimit="10" stroke-linecap="round"/>
<path opacity="0.5" d="M1351.13 305.535C1335.87 312.208 1312.98 314.591 1283.89 314.591M1269.11 589.144C1314.41 571.984 1374.49 548.152 1390.71 543.862C1419.32 538.619 1432.19 538.142 1446.02 545.768C1456.03 546.245 1443.64 538.142 1444.11 538.142C1426.95 529.086 1426.47 527.179 1377.36 538.142L1304.88 548.152L1269.11 555.778L1267.68 557.208L1265.3 557.685H1264.34L1260.05 558.161" stroke="#28A055" stroke-width="0.485" stroke-miterlimit="10" stroke-linecap="round"/>
<path opacity="0.5" d="M1281.03 674.942C1305.83 671.605 1327.76 662.072 1353.04 650.632M1285.8 700.204C1312.03 695.914 1331.1 691.148 1362.1 678.755M1302.97 741.196C1398.34 747.87 1414.55 703.541 1448.88 664.455C1459.85 652.539 1475.11 643.959 1496.09 643.482M1446.02 391.333C1474.63 395.146 1487.03 373.697 1503.72 342.714C1517.55 315.545 1529.47 276.459 1551.4 260.253C1584.78 233.084 1617.68 249.767 1636.28 252.15L1664.89 252.626C1710.19 252.626 1736.42 271.216 1770.27 288.852C1794.11 303.152 1815.09 314.591 1849.9 312.685C1909.03 314.591 1932.4 314.591 1980.08 343.191L1989.14 350.34L1989.62 355.107" stroke="#28A055" stroke-width="0.485" stroke-miterlimit="10" stroke-linecap="round"/>
<path opacity="0.5" d="M1691.59 220.214C1760.74 221.644 1793.64 233.084 1841.8 237.85C1901.88 240.71 1946.7 250.72 1989.62 274.076" stroke="#28A055" stroke-width="0.485" stroke-miterlimit="10" stroke-linecap="round"/>
<path opacity="0.5" d="M1989.62 182.082C1963.87 175.885 1937.17 175.885 1891.87 175.885C1849.43 175.885 1775.04 180.652 1710.19 195.428" stroke="#28A055" stroke-width="0.485" stroke-miterlimit="10" stroke-linecap="round"/>
<path d="M1665.37 242.617C1717.82 244.047 1746.91 267.879 1780.29 280.749C1822.72 298.385 1846.57 295.049 1879.95 295.525C1913.32 296.002 1952.43 305.058 1989.14 333.181L1989.62 329.368" stroke="#28A055" stroke-width="0.6" stroke-miterlimit="10" stroke-linecap="round"/>
<path opacity="0.5" d="M1706.38 223.551C1732.12 224.027 1777.42 238.803 1804.13 245.953C1827.02 250.243 1863.73 253.103 1889.96 255.486C1936.69 259.776 1963.87 271.216 1989.62 285.992" stroke="#28A055" stroke-width="0.485" stroke-miterlimit="10" stroke-linecap="round"/>
<path d="M1705.9 209.728C1779.81 207.821 1837.03 202.578 1879.95 205.438L1947.18 211.634L1989.62 219.261" stroke="#28A055" stroke-width="0.6" stroke-miterlimit="10" stroke-linecap="round"/>
<path opacity="0.5" d="M1693.98 214.971L1736.89 211.634C1777.42 209.728 1820.34 209.728 1862.78 209.728C1909.03 212.588 1960.53 216.877 1989.62 229.747M1689.21 216.877L1754.06 214.494C1794.59 214.494 1827.49 216.877 1870.89 216.877C1913.8 219.261 1951.95 225.934 1989.62 238.327" stroke="#28A055" stroke-width="0.485" stroke-miterlimit="10" stroke-linecap="round"/>
<path opacity="0.5" d="M1696.84 209.251H1732.12C1779.81 207.821 1815.09 204.961 1863.26 204.961C1904.26 206.868 1951.47 206.868 1989.62 218.784" stroke="#28A055" stroke-width="0.485" stroke-miterlimit="10" stroke-linecap="round"/>
<path d="M1706.38 209.728L1734.51 206.868C1769.8 204.961 1808.42 197.811 1839.89 197.811C1872.79 197.811 1917.62 200.671 1941.93 202.578C1958.62 202.578 1977.7 204.961 1989.62 206.868" stroke="#28A055" stroke-width="0.6" stroke-miterlimit="10" stroke-linecap="round"/>
<path d="M1633.9 250.243L1668.23 252.15C1706.38 255.01 1731.65 269.309 1762.64 287.899C1779.81 297.909 1798.41 321.741 1837.03 323.648C1884.71 326.508 1910.94 310.302 1989.62 355.107" stroke="#28A055" stroke-width="0.6" stroke-miterlimit="10" stroke-linecap="round"/>
<path d="M1707.81 237.85C1753.11 250.243 1772.66 262.16 1803.65 269.309C1851.81 278.842 1891.87 271.693 1929.54 285.992C1948.61 290.282 1972.93 300.768 1989.62 312.685" stroke="#28A055" stroke-width="0.6" stroke-miterlimit="10" stroke-linecap="round"/>
<path opacity="0.5" d="M1634.85 267.403L1672.52 273.599C1708.76 278.842 1732.12 297.432 1760.74 319.358C1782.67 340.807 1794.59 353.2 1827.97 357.967H1877.56C1920.48 355.584 1955.76 369.407 1987.23 398.006H1990.1" stroke="#28A055" stroke-width="0.485" stroke-miterlimit="10" stroke-linecap="round"/>
<path d="M1636.28 268.833L1653.45 274.553C1696.36 278.842 1713.53 288.376 1732.12 302.199L1763.12 331.274C1789.35 354.63 1806.51 369.883 1832.74 371.313C1865.64 371.313 1877.56 364.64 1910.94 369.407C1932.4 373.697 1966.25 390.856 1989.62 411.829" stroke="#28A055" stroke-width="0.6" stroke-miterlimit="10" stroke-linecap="round"/>
<path opacity="0.5" d="M1579.06 233.56C1596.23 235.467 1618.16 241.187 1639.14 238.327L1672.52 233.56H1687.3H1698.75" stroke="#28A055" stroke-width="0.485" stroke-miterlimit="10" stroke-linecap="round"/>
<path opacity="0.5" d="M1574.29 233.56L1596.7 238.327C1613.39 243.57 1636.76 242.617 1653.45 238.327" stroke="#28A055" stroke-width="0.485" stroke-miterlimit="10" stroke-linecap="round"/>
<path d="M1575.24 256.916H1581.44C1603.38 262.636 1631.51 275.983 1656.31 280.749C1675.38 285.992 1689.69 285.992 1710.67 297.909" stroke="#28A055" stroke-width="0.6" stroke-miterlimit="10" stroke-linecap="round"/>
<path opacity="0.5" d="M1510.39 291.235L1493.7 318.881C1483.69 340.331 1467.48 365.117 1448.88 376.556" stroke="#28A055" stroke-width="0.485" stroke-miterlimit="10" stroke-linecap="round"/>
<path d="M1386.89 319.835C1355.9 311.732 1329.67 337.948 1302.97 352.724C1271.5 374.173 1222.38 391.333 1178.99 402.296L1174.7 402.772H1174.22H1171.84" stroke="#28A055" stroke-width="0.6" stroke-miterlimit="10" stroke-linecap="round"/>
<path opacity="0.5" d="M1400.24 326.984C1376.88 314.591 1355.42 328.891 1329.19 346.051C1291.05 376.08 1240.98 388.949 1183.76 402.772L1177.08 404.679L1176.61 405.156H1176.13H1174.7" stroke="#28A055" stroke-width="0.485" stroke-miterlimit="10" stroke-linecap="round"/>
<path d="M1410.26 331.751L1422.18 340.331C1446.02 321.741 1479.4 269.786 1494.18 250.243C1512.78 231.177 1534.71 218.784 1548.54 216.877" stroke="#28A055" stroke-width="0.6" stroke-miterlimit="10" stroke-linecap="round"/>
<path opacity="0.5" d="M1405.97 324.601C1429.81 306.965 1446.02 281.226 1459.85 262.16C1478.92 238.327 1496.09 219.261 1531.85 211.634L1565.71 209.728" stroke="#28A055" stroke-width="0.485" stroke-miterlimit="10" stroke-linecap="round"/>
<path d="M1421.7 359.874C1395.95 331.274 1370.2 333.658 1329.67 364.64C1302.97 388.473 1257.67 399.912 1211.89 412.305L1188.05 417.549H1185.67M1184.23 419.455L1267.2 398.006C1310.12 383.706 1327.29 365.117 1340.64 353.2C1355.42 340.807 1378.79 322.218 1400.24 326.984" stroke="#28A055" stroke-width="0.6" stroke-miterlimit="10" stroke-linecap="round"/>
<path opacity="0.5" d="M1188.53 444.241L1257.19 429.465C1316.8 414.689 1329.19 402.296 1346.36 390.856C1378.79 369.883 1403.58 350.341 1426.95 368.93L1436.96 376.08M1190.91 436.615C1226.67 431.848 1291.52 412.305 1310.6 400.389C1341.12 385.613 1366.86 352.247 1397.86 347.481L1408.35 348.911L1419.32 355.584L1429.33 365.117L1434.1 380.846" stroke="#28A055" stroke-width="0.485" stroke-miterlimit="10" stroke-linecap="round"/>
<path opacity="0.5" d="M1197.59 460.447L1255.76 449.961C1322.52 435.661 1343.5 419.932 1369.73 405.632C1391.66 390.856 1412.16 381.8 1431.24 393.239L1443.16 405.156M1193.77 476.177L1250.99 465.214C1333.49 452.344 1354.94 431.848 1393.57 412.782C1416.93 405.156 1434.58 407.062 1446.02 419.455" stroke="#28A055" stroke-width="0.485" stroke-miterlimit="10" stroke-linecap="round"/>
<path opacity="0.5" d="M1199.97 488.57L1265.3 476.654C1327.29 469.504 1353.51 457.588 1381.65 442.811C1409.78 428.988 1426.95 427.082 1444.11 434.231C1451.27 436.138 1459.85 446.148 1467 458.064" stroke="#28A055" stroke-width="0.485" stroke-miterlimit="10" stroke-linecap="round"/>
<path opacity="0.5" d="M1209.98 504.776C1240.98 500.486 1315.37 493.337 1336.35 488.57C1379.26 479.514 1397.86 467.597 1426.95 467.597C1450.79 469.504 1456.03 479.514 1474.15 502.87" stroke="#28A055" stroke-width="0.485" stroke-miterlimit="10" stroke-linecap="round"/>
<path opacity="0.5" d="M1217.14 521.936L1336.35 508.113C1391.18 500.486 1402.63 493.337 1420.27 490.953C1436.96 490.953 1457.46 493.337 1478.92 517.646" stroke="#28A055" stroke-width="0.485" stroke-miterlimit="10" stroke-linecap="round"/>
<path opacity="0.5" d="M1220 529.562L1333.96 517.169C1384.03 512.879 1403.1 502.87 1424.09 500.486C1444.11 500.486 1462.23 503.346 1477.49 515.263" stroke="#28A055" stroke-width="0.485" stroke-miterlimit="10" stroke-linecap="round"/>
<path opacity="0.5" d="M1224.77 533.852C1243.84 529.562 1310.6 521.936 1338.73 520.029C1379.26 517.646 1401.2 509.543 1424.56 507.16C1446.5 507.636 1462.23 512.879 1477.01 524.319M1228.58 538.142L1281.51 531.469L1339.21 527.179C1381.17 524.319 1395.95 517.169 1422.66 512.403C1447.93 512.879 1462.23 519.553 1478.92 528.609" stroke="#28A055" stroke-width="0.485" stroke-miterlimit="10" stroke-linecap="round"/>
<path opacity="0.5" d="M1240.5 547.675C1262.44 543.862 1290.57 541.479 1320.13 538.619C1358.28 538.619 1384.51 529.086 1415.5 529.086C1434.58 529.086 1455.56 536.236 1469.39 545.292" stroke="#28A055" stroke-width="0.485" stroke-miterlimit="10" stroke-linecap="round"/>
<path d="M1305.35 743.58L1333.96 750.253C1358.28 753.59 1379.26 753.59 1407.87 734.047C1434.58 714.504 1460.33 671.605 1472.25 657.782C1481.78 648.249 1491.8 639.193 1508.49 645.866L1522.79 655.876" stroke="#28A055" stroke-width="0.6" stroke-miterlimit="10" stroke-linecap="round"/>
<path opacity="0.5" d="M1307.26 765.029L1346.36 774.086C1369.25 776.945 1388.8 774.562 1403.1 770.272C1422.18 763.123 1434.1 751.206 1456.03 727.374C1465.09 717.364 1481.78 691.148 1498.95 688.288C1517.55 688.764 1531.85 715.457 1545.68 738.813C1555.69 755.496 1560.94 765.506 1577.15 762.646L1580.49 760.739" stroke="#28A055" stroke-width="0.485" stroke-miterlimit="10" stroke-linecap="round"/>
<path d="M1315.37 790.768L1366.86 798.872C1409.78 802.685 1420.27 798.872 1443.16 784.095L1472.25 757.879C1483.69 750.729 1496.09 743.58 1507.53 746.44C1519.45 750.73 1531.85 766.936 1543.77 779.329L1552.83 791.245L1571.91 793.628" stroke="#28A055" stroke-width="0.6" stroke-miterlimit="10" stroke-linecap="round"/>
<path opacity="0.5" d="M1321.56 816.984L1376.88 826.994C1402.63 831.761 1424.09 831.761 1447.93 817.938M1324.43 838.911L1360.19 846.06C1390.71 851.304 1405.49 862.267 1436.48 857.5C1467 853.21 1486.07 831.284 1503.72 822.228C1517.55 813.171 1527.56 812.695 1546.63 817.461L1558.55 822.228" stroke="#28A055" stroke-width="0.485" stroke-miterlimit="10" stroke-linecap="round"/>
<path d="M1327.29 853.21L1367.34 862.266L1403.1 869.416C1424.56 874.659 1443.64 874.659 1457.94 869.416L1531.85 841.77L1541.39 841.294" stroke="#28A055" stroke-width="0.6" stroke-miterlimit="10" stroke-linecap="round"/>
<path opacity="0.5" d="M1329.19 874.183L1369.73 881.333L1422.18 886.099C1450.31 886.576 1478.92 867.51 1505.63 865.603L1550.93 855.593L1569.52 853.21H1586.21L1614.82 869.416" stroke="#28A055" stroke-width="0.485" stroke-miterlimit="10" stroke-linecap="round"/>
<path d="M1331.58 884.193L1360.67 888.959L1417.41 891.819C1446.5 888.959 1471.77 876.566 1500.86 874.183L1531.37 872.276L1565.23 864.65L1581.44 862.267L1593.84 860.837H1603.38" stroke="#28A055" stroke-width="0.6" stroke-miterlimit="10" stroke-linecap="round"/>
<path d="M1372.11 912.315L1419.79 898.492L1465.09 881.333L1521.84 865.126L1548.06 857.5L1564.75 855.593H1583.83L1612.44 870.37" stroke="#28A055" stroke-width="0.6" stroke-miterlimit="10" stroke-linecap="round"/>
<path opacity="0.5" d="M1383.55 915.175C1409.78 915.175 1453.65 908.025 1479.88 908.025L1526.61 905.642L1558.55 908.502C1584.3 906.595 1606.24 893.726 1624.84 894.202H1655.83" stroke="#28A055" stroke-width="0.485" stroke-miterlimit="10" stroke-linecap="round"/>
<path opacity="0.5" d="M1389.28 922.325L1434.58 921.848C1471.77 919.942 1494.18 919.942 1528.99 919.942H1560.46C1581.92 919.942 1603.85 905.642 1622.45 900.876L1641.05 895.632M1394.04 929.475L1456.03 926.615L1508.01 924.232H1545.68C1572.38 926.615 1593.36 915.175 1615.78 905.642L1634.37 898.016L1646.29 895.632" stroke="#28A055" stroke-width="0.485" stroke-miterlimit="10" stroke-linecap="round"/>
<path opacity="0.5" d="M1402.63 937.101L1460.33 934.241L1541.39 931.858C1570 931.858 1586.69 929.475 1608.62 919.942C1627.22 912.315 1641.05 903.259 1655.83 898.969" stroke="#28A055" stroke-width="0.485" stroke-miterlimit="10" stroke-linecap="round"/>
<path opacity="0.5" d="M1407.87 944.251L1465.09 939.008L1527.08 936.625C1555.22 939.484 1574.29 936.625 1596.7 926.615L1627.7 909.932L1645.82 895.632" stroke="#28A055" stroke-width="0.485" stroke-miterlimit="10" stroke-linecap="round"/>
<path opacity="0.5" d="M1412.64 950.448L1469.86 944.251L1531.85 941.868C1553.31 941.391 1574.77 939.008 1594.32 929.475L1630.08 912.315L1651.06 903.259L1657.74 898.016" stroke="#28A055" stroke-width="0.485" stroke-miterlimit="10" stroke-linecap="round"/>
<path opacity="0.5" d="M1415.5 953.307L1486.55 946.634L1541.39 944.251C1563.32 944.251 1582.4 939.008 1602.9 929.475M1602.9 929.475C1614.82 924.231 1625.31 917.082 1633.9 912.315L1653.92 900.399L1663.46 898.492M1602.9 929.475C1580.01 939.484 1565.71 946.158 1539.48 946.158L1484.17 952.831L1421.7 958.074M1602.9 929.475L1644.39 910.885L1669.66 903.259L1676.81 900.875" stroke="#28A055" stroke-width="0.485" stroke-miterlimit="10" stroke-linecap="round"/>
<path opacity="0.5" d="M1429.33 967.607L1515.16 958.074C1550.93 955.691 1574.77 945.681 1598.61 939.008L1636.76 926.615L1669.66 921.848C1683.96 919.942 1693.98 919.942 1703.04 917.082H1710.19" stroke="#28A055" stroke-width="0.485" stroke-miterlimit="10" stroke-linecap="round"/>
<path opacity="0.5" d="M1436.48 972.373L1479.4 968.084L1522.31 962.84C1550.93 959.98 1577.63 948.541 1606.24 941.868L1653.92 934.241L1677.29 931.381L1705.9 921.848M1443.64 979.047L1476.54 976.663L1514.69 971.897C1540.91 967.607 1560.94 959.98 1591.93 952.831L1637.23 945.681L1665.37 940.914L1693.98 934.241M1452.7 984.29L1483.69 981.43L1522.79 974.757C1543.77 970.467 1575.24 959.98 1598.61 955.691L1642 948.541L1665.37 944.251L1684.44 936.624M1459.85 986.673L1498 983.813C1519.93 982.383 1548.06 971.897 1576.67 965.224L1622.45 957.597L1642 953.307L1668.23 948.064L1684.44 941.391" stroke="#28A055" stroke-width="0.485" stroke-miterlimit="10" stroke-linecap="round"/>
<path opacity="0.5" d="M1465.57 991.44L1496.09 989.533L1543.77 977.617C1567.61 970.467 1593.84 962.84 1610.53 960.934L1648.2 953.307L1672.04 945.681L1688.73 937.101L1703.04 929.475M1474.63 996.683L1498.47 993.823L1541.39 984.29C1568.09 977.14 1589.07 970.467 1615.3 965.7L1648.68 958.074L1674.43 948.541L1692.07 939.008M1481.78 1000.97L1527.08 991.44C1550.93 986.673 1572.86 977.14 1603.38 972.373L1642 962.84L1667.75 953.307L1686.35 944.251M1281.99 651.109C1345.41 626.8 1362.1 617.266 1391.18 589.144C1405.97 574.844 1424.56 552.442 1445.54 545.768L1457.46 545.292" stroke="#28A055" stroke-width="0.485" stroke-miterlimit="10" stroke-linecap="round"/>
<path opacity="0.5" d="M1284.37 678.755L1326.81 665.409L1362.1 650.632L1376.88 638.716C1403.1 620.126 1422.18 592.957 1448.4 574.368C1462.71 564.358 1476.54 559.591 1488.94 570.078" stroke="#28A055" stroke-width="0.485" stroke-miterlimit="10" stroke-linecap="round"/>
<path d="M1304.88 740.72V741.196M1348.74 722.607C1388.8 713.074 1410.26 690.671 1420.27 678.755L1447.93 640.622L1465.09 619.65C1476.54 608.21 1488.46 605.35 1496.09 610.117C1509.92 620.126 1524.22 652.539 1529.47 665.409L1541.39 691.148L1551.4 712.597L1558.55 734.047" stroke="#28A055" stroke-width="0.6" stroke-miterlimit="10" stroke-linecap="round"/>
<path opacity="0.5" d="M1352.56 751.206C1379.26 750.73 1400.24 738.813 1416.93 724.99L1434.1 705.924L1446.5 690.671L1456.03 679.232L1465.09 669.698" stroke="#28A055" stroke-width="0.485" stroke-miterlimit="10" stroke-linecap="round"/>
<path opacity="0.5" d="M1353.04 786.955L1374.49 786.479C1414.55 784.095 1436.48 763.123 1455.56 741.196C1474.63 722.13 1484.17 705.447 1503.24 707.354C1519.93 707.354 1534.24 729.757 1548.54 748.346L1563.32 769.796L1574.77 774.562L1584.3 777.422" stroke="#28A055" stroke-width="0.485" stroke-miterlimit="10" stroke-linecap="round"/>
<path opacity="0.5" d="M1386.42 815.554L1396.43 815.078C1428.85 813.171 1443.64 798.872 1464.62 784.095C1477.49 772.179 1496.09 763.122 1512.78 762.169L1527.56 765.506" stroke="#28A055" stroke-width="0.485" stroke-miterlimit="10" stroke-linecap="round"/>
<path opacity="0.5" d="M1444.11 815.554L1453.65 809.835L1482.26 786.479L1506.1 770.272L1518.02 765.506L1529.47 767.412L1534.71 769.796" stroke="#28A055" stroke-width="0.485" stroke-miterlimit="10" stroke-linecap="round"/>
<path opacity="0.5" d="M1502.76 851.303L1510.39 848.444L1531.85 843.2L1549.02 841.294L1570.48 843.2L1579.54 848.444" stroke="#28A055" stroke-width="0.485" stroke-miterlimit="10" stroke-linecap="round"/>
<path opacity="0.5" d="M1484.17 865.603L1507.53 860.36L1541.39 853.21L1560.46 850.827H1574.77L1581.92 851.304L1596.23 858.453" stroke="#28A055" stroke-width="0.485" stroke-miterlimit="10" stroke-linecap="round"/>
<path d="M1742.14 324.124C1710.67 298.385 1696.36 293.142 1662.98 285.992M1621.97 309.825C1603.38 298.385 1589.07 285.992 1570 296.002C1546.16 307.442 1538.53 328.891 1525.18 353.2C1512.3 378.94 1503.24 403.249 1486.55 407.062C1476.54 409.922 1465.09 405.632 1453.17 395.623L1469.86 419.455C1479.4 433.755 1498 426.605 1512.3 419.932C1532.33 409.922 1548.54 376.08 1574.29 355.107C1593.36 340.807 1607.67 336.041 1641.52 340.807L1675.38 343.667C1706.38 350.817 1717.82 357.49 1734.03 372.267L1757.87 397.529" stroke="#28A055" stroke-width="0.6" stroke-miterlimit="10" stroke-linecap="round"/>
<path d="M1617.68 321.741C1670.14 328.891 1684.44 328.891 1708.28 341.284L1724.97 352.724C1739.28 362.257 1748.34 378.94 1760.74 395.623" stroke="#28A055" stroke-width="0.6" stroke-miterlimit="10" stroke-linecap="round"/>
<path opacity="0.5" d="M1582.4 341.284L1602.9 338.424C1639.14 336.041 1670.14 336.041 1695.88 345.097C1718.3 355.107 1736.42 372.267 1744.52 381.323L1758.83 398.006L1765.98 400.389" stroke="#28A055" stroke-width="0.485" stroke-miterlimit="10" stroke-linecap="round"/>
<path d="M1644.39 314.591L1682.06 324.125C1708.28 334.134 1729.26 347.957 1742.14 364.64L1780.29 415.165M1643.43 348.434H1662.51C1689.21 348.434 1708.28 357.49 1717.34 364.64C1732.12 374.173 1741.18 386.566 1748.34 395.146" stroke="#28A055" stroke-width="0.6" stroke-miterlimit="10" stroke-linecap="round"/>
<path opacity="0.5" d="M1460.8 402.772C1479.88 399.912 1493.7 376.556 1505.63 352.724L1527.56 302.675C1536.14 283.132 1553.31 262.636 1569.52 259.776H1584.78L1600.99 264.543" stroke="#28A055" stroke-width="0.485" stroke-miterlimit="10" stroke-linecap="round"/>
<path opacity="0.5" d="M1450.79 386.566C1469.39 386.566 1488.94 354.63 1498.47 336.041L1529.94 271.693C1538.53 257.393 1552.83 245.953 1565.23 245.477" stroke="#28A055" stroke-width="0.485" stroke-miterlimit="10" stroke-linecap="round"/>
<path opacity="0.5" d="M1455.56 395.623C1479.4 395.623 1488.46 376.08 1500.86 347.957L1529.47 285.992C1539 267.403 1550.93 252.626 1569.52 252.626M1445.54 366.547C1483.69 338.901 1503.72 264.066 1531.37 240.71L1555.22 224.027" stroke="#28A055" stroke-width="0.485" stroke-miterlimit="10" stroke-linecap="round"/>
<path d="M1370.2 640.623L1355.9 650.156L1355.42 650.632" stroke="#28A055" stroke-width="0.6" stroke-miterlimit="10" stroke-linecap="round"/>
<path opacity="0.5" d="M1379.26 679.232L1394.04 670.175C1420.27 648.249 1431.71 626.8 1446.5 614.883M1398.81 719.747C1434.1 695.914 1447.93 658.259 1472.25 636.333C1486.55 624.893 1496.09 622.51 1510.39 638.716L1539 691.148L1557.6 722.13L1569.52 729.757L1577.15 732.14M1417.89 745.963C1451.27 720.224 1467.95 674.942 1493.7 664.932C1508.49 660.642 1513.25 672.082 1526.61 698.298L1541.39 726.42L1556.17 748.346L1570 755.019H1580.01" stroke="#28A055" stroke-width="0.485" stroke-miterlimit="10" stroke-linecap="round"/>
<path d="M1417.41 746.44L1417.89 745.963M1586.69 767.412L1568.09 766.936L1556.17 759.786L1541.87 738.337L1517.55 700.681" stroke="#28A055" stroke-width="0.6" stroke-miterlimit="10" stroke-linecap="round"/>
<path opacity="0.5" d="M1591.46 798.395H1580.01L1562.85 795.535L1546.16 778.852C1539 769.319 1536.14 767.412 1529.47 762.169" stroke="#28A055" stroke-width="0.485" stroke-miterlimit="10" stroke-linecap="round"/>
<path d="M1588.6 803.638H1579.54L1564.75 800.302L1550.45 793.628L1528.99 781.712M1581.44 815.078H1569.52L1555.69 807.928L1529.47 801.255M1589.07 834.144L1574.77 833.667L1555.22 822.228L1528.99 802.685" stroke="#28A055" stroke-width="0.6" stroke-miterlimit="10" stroke-linecap="round"/>
<path opacity="0.5" d="M1590.98 810.788L1577.63 812.695L1567.14 810.311L1553.31 803.638L1543.3 796.012L1527.08 783.619M1512.78 893.726H1524.7H1531.37L1555.69 891.342L1572.38 886.576L1581.44 884.193M1519.93 915.175L1546.16 920.418L1562.85 919.465L1589.07 912.792L1625.31 898.016L1638.66 895.632M1505.15 919.942H1522.31" stroke="#28A055" stroke-width="0.485" stroke-miterlimit="10" stroke-linecap="round"/>
<path d="M1558.55 886.099L1572.38 884.193L1574.29 882.286V884.193M1532.33 910.409L1541.39 909.932H1560.46L1559.99 910.409" stroke="#28A055" stroke-width="0.6" stroke-miterlimit="10" stroke-linecap="round"/>
<path opacity="0.5" d="M1282.5 614.5L1312.98 600.107L1343.5 586.284L1390.71 562.928C1410.26 552.918 1426.95 543.385 1446.02 543.385M1286.5 630.5L1307.74 619.173L1333.49 605.827L1362.57 591.051L1398.34 567.218C1417.41 557.685 1436.01 546.245 1453.17 545.292M1386.89 686.381C1407.87 674.942 1422.65 648.726 1445.54 631.566M1386.89 685.905L1386.41 686.381M1400.72 719.747L1400.24 719.27M1417.41 745.963L1417.89 746.44M1374.49 531.946L1400.72 526.702C1431.71 521.936 1445.54 529.562 1457.46 535.759" stroke="#28A055" stroke-width="0.485" stroke-miterlimit="10" stroke-linecap="round"/>
<path d="M1534.24 255.486C1536.87 255.486 1539 253.352 1539 250.72C1539 248.087 1536.87 245.953 1534.24 245.953C1531.6 245.953 1529.47 248.087 1529.47 250.72C1529.47 253.352 1531.6 255.486 1534.24 255.486Z" fill="#4285F4"/>
<path d="M1527.56 260.253C1530.19 260.253 1532.33 258.119 1532.33 255.486C1532.33 252.854 1530.19 250.72 1527.56 250.72C1524.93 250.72 1522.79 252.854 1522.79 255.486C1522.79 258.119 1524.93 260.253 1527.56 260.253Z" fill="#4285F4"/>
<path d="M1539 230.7C1541.64 230.7 1543.77 228.566 1543.77 225.934C1543.77 223.301 1541.64 221.167 1539 221.167C1536.37 221.167 1534.24 223.301 1534.24 225.934C1534.24 228.566 1536.37 230.7 1539 230.7Z" fill="#4285F4"/>
<path d="M1551.4 225.934C1554.04 225.934 1556.17 223.8 1556.17 221.167C1556.17 218.535 1554.04 216.401 1551.4 216.401C1548.77 216.401 1546.63 218.535 1546.63 221.167C1546.63 223.8 1548.77 225.934 1551.4 225.934Z" fill="#4285F4"/>
<path d="M1543.77 238.327C1546.41 238.327 1548.54 236.193 1548.54 233.56C1548.54 230.928 1546.41 228.794 1543.77 228.794C1541.14 228.794 1539 230.928 1539 233.56C1539 236.193 1541.14 238.327 1543.77 238.327Z" fill="#4285F4"/>
<path d="M1557.6 206.868C1560.23 206.868 1562.37 204.734 1562.37 202.101C1562.37 199.469 1560.23 197.335 1557.6 197.335C1554.97 197.335 1552.83 199.469 1552.83 202.101C1552.83 204.734 1554.97 206.868 1557.6 206.868Z" fill="#4285F4"/>
<path d="M1562.85 223.551C1565.48 223.551 1567.61 221.417 1567.61 218.784C1567.61 216.152 1565.48 214.018 1562.85 214.018C1560.21 214.018 1558.08 216.152 1558.08 218.784C1558.08 221.417 1560.21 223.551 1562.85 223.551Z" fill="#4285F4"/>
<path d="M1572.38 211.634C1575.02 211.634 1577.15 209.5 1577.15 206.868C1577.15 204.235 1575.02 202.101 1572.38 202.101C1569.75 202.101 1567.61 204.235 1567.61 206.868C1567.61 209.5 1569.75 211.634 1572.38 211.634Z" fill="#4285F4"/>
<path d="M1572.86 219.261C1575.49 219.261 1577.63 217.127 1577.63 214.494C1577.63 211.862 1575.49 209.728 1572.86 209.728C1570.23 209.728 1568.09 211.862 1568.09 214.494C1568.09 217.127 1570.23 219.261 1572.86 219.261Z" fill="#4285F4"/>
<path d="M1579.54 225.934C1582.17 225.934 1584.3 223.8 1584.3 221.167C1584.3 218.535 1582.17 216.401 1579.54 216.401C1576.9 216.401 1574.77 218.535 1574.77 221.167C1574.77 223.8 1576.9 225.934 1579.54 225.934Z" fill="#4285F4"/>
<path d="M1574.77 237.85C1577.4 237.85 1579.54 235.716 1579.54 233.084C1579.54 230.451 1577.4 228.317 1574.77 228.317C1572.13 228.317 1570 230.451 1570 233.084C1570 235.716 1572.13 237.85 1574.77 237.85Z" fill="#4285F4"/>
<path d="M1586.69 226.411C1589.32 226.411 1591.46 224.276 1591.46 221.644C1591.46 219.011 1589.32 216.877 1586.69 216.877C1584.05 216.877 1581.92 219.011 1581.92 221.644C1581.92 224.276 1584.05 226.411 1586.69 226.411Z" fill="#4285F4"/>
<path d="M1581.92 237.85C1584.55 237.85 1586.69 235.716 1586.69 233.084C1586.69 230.451 1584.55 228.317 1581.92 228.317C1579.29 228.317 1577.15 230.451 1577.15 233.084C1577.15 235.716 1579.29 237.85 1581.92 237.85Z" fill="#4285F4"/>
<path d="M1584.3 236.42C1586.94 236.42 1589.07 234.286 1589.07 231.654C1589.07 229.021 1586.94 226.887 1584.3 226.887C1581.67 226.887 1579.54 229.021 1579.54 231.654C1579.54 234.286 1581.67 236.42 1584.3 236.42Z" fill="#4285F4"/>
<path d="M1587.17 231.177C1589.8 231.177 1591.93 229.043 1591.93 226.41C1591.93 223.778 1589.8 221.644 1587.17 221.644C1584.53 221.644 1582.4 223.778 1582.4 226.41C1582.4 229.043 1584.53 231.177 1587.17 231.177Z" fill="#4285F4"/>
<path d="M1591.46 202.101C1594.09 202.101 1596.23 199.967 1596.23 197.335C1596.23 194.702 1594.09 192.568 1591.46 192.568C1588.82 192.568 1586.69 194.702 1586.69 197.335C1586.69 199.967 1588.82 202.101 1591.46 202.101Z" fill="#4285F4"/>
<path d="M1591.46 216.401C1594.09 216.401 1596.23 214.267 1596.23 211.634C1596.23 209.002 1594.09 206.868 1591.46 206.868C1588.82 206.868 1586.69 209.002 1586.69 211.634C1586.69 214.267 1588.82 216.401 1591.46 216.401Z" fill="#4285F4"/>
<path d="M1608.15 197.335C1610.78 197.335 1612.91 195.201 1612.91 192.568C1612.91 189.936 1610.78 187.802 1608.15 187.802C1605.51 187.802 1603.38 189.936 1603.38 192.568C1603.38 195.201 1605.51 197.335 1608.15 197.335Z" fill="#4285F4"/>
<path d="M1612.91 206.868C1615.55 206.868 1617.68 204.734 1617.68 202.101C1617.68 199.469 1615.55 197.335 1612.91 197.335C1610.28 197.335 1608.15 199.469 1608.15 202.101C1608.15 204.734 1610.28 206.868 1612.91 206.868Z" fill="#4285F4"/>
<path d="M1612.44 218.784C1615.07 218.784 1617.21 216.65 1617.21 214.018C1617.21 211.385 1615.07 209.251 1612.44 209.251C1609.8 209.251 1607.67 211.385 1607.67 214.018C1607.67 216.65 1609.8 218.784 1612.44 218.784Z" fill="#4285F4"/>
<path d="M1617.21 221.167C1619.84 221.167 1621.97 219.033 1621.97 216.401C1621.97 213.768 1619.84 211.634 1617.21 211.634C1614.57 211.634 1612.44 213.768 1612.44 216.401C1612.44 219.033 1614.57 221.167 1617.21 221.167Z" fill="#4285F4"/>
<path d="M1627.22 190.185C1629.85 190.185 1631.99 188.051 1631.99 185.418C1631.99 182.786 1629.85 180.652 1627.22 180.652C1624.59 180.652 1622.45 182.786 1622.45 185.418C1622.45 188.051 1624.59 190.185 1627.22 190.185Z" fill="#4285F4"/>
<path d="M1621.97 224.027C1624.61 224.027 1626.74 221.893 1626.74 219.261C1626.74 216.628 1624.61 214.494 1621.97 214.494C1619.34 214.494 1617.21 216.628 1617.21 219.261C1617.21 221.893 1619.34 224.027 1621.97 224.027Z" fill="#4285F4"/>
<path d="M1629.13 216.401C1631.76 216.401 1633.9 214.267 1633.9 211.634C1633.9 209.002 1631.76 206.868 1629.13 206.868C1626.49 206.868 1624.36 209.002 1624.36 211.634C1624.36 214.267 1626.49 216.401 1629.13 216.401Z" fill="#4285F4"/>
<path d="M1631.51 200.671C1634.14 200.671 1636.28 198.537 1636.28 195.905C1636.28 193.272 1634.14 191.138 1631.51 191.138C1628.88 191.138 1626.74 193.272 1626.74 195.905C1626.74 198.537 1628.88 200.671 1631.51 200.671Z" fill="#4285F4"/>
<path d="M1643.91 190.185C1646.54 190.185 1648.68 188.051 1648.68 185.418C1648.68 182.786 1646.54 180.652 1643.91 180.652C1641.28 180.652 1639.14 182.786 1639.14 185.418C1639.14 188.051 1641.28 190.185 1643.91 190.185Z" fill="#4285F4"/>
<path d="M1641.53 207.821C1644.16 207.821 1646.29 205.687 1646.29 203.055C1646.29 200.422 1644.16 198.288 1641.53 198.288C1638.89 198.288 1636.76 200.422 1636.76 203.055C1636.76 205.687 1638.89 207.821 1641.53 207.821Z" fill="#4285F4"/>
<path d="M1651.54 211.634C1654.17 211.634 1656.31 209.5 1656.31 206.868C1656.31 204.235 1654.17 202.101 1651.54 202.101C1648.91 202.101 1646.77 204.235 1646.77 206.868C1646.77 209.5 1648.91 211.634 1651.54 211.634Z" fill="#4285F4"/>
<path d="M1650.58 195.905C1653.22 195.905 1655.35 193.771 1655.35 191.138C1655.35 188.506 1653.22 186.372 1650.58 186.372C1647.95 186.372 1645.82 188.506 1645.82 191.138C1645.82 193.771 1647.95 195.905 1650.58 195.905Z" fill="#4285F4"/>
<path d="M1652.97 195.428C1655.6 195.428 1657.74 193.294 1657.74 190.661C1657.74 188.029 1655.6 185.895 1652.97 185.895C1650.34 185.895 1648.2 188.029 1648.2 190.661C1648.2 193.294 1650.34 195.428 1652.97 195.428Z" fill="#4285F4"/>
<path d="M1665.37 193.045C1668 193.045 1670.14 190.911 1670.14 188.278C1670.14 185.646 1668 183.512 1665.37 183.512C1662.73 183.512 1660.6 185.646 1660.6 188.278C1660.6 190.911 1662.73 193.045 1665.37 193.045Z" fill="#4285F4"/>
<path d="M1668.23 197.335C1670.86 197.335 1673 195.201 1673 192.568C1673 189.936 1670.86 187.802 1668.23 187.802C1665.59 187.802 1663.46 189.936 1663.46 192.568C1663.46 195.201 1665.59 197.335 1668.23 197.335Z" fill="#4285F4"/>
<path d="M1669.66 197.335C1672.29 197.335 1674.43 195.201 1674.43 192.568C1674.43 189.936 1672.29 187.802 1669.66 187.802C1667.03 187.802 1664.89 189.936 1664.89 192.568C1664.89 195.201 1667.03 197.335 1669.66 197.335Z" fill="#4285F4"/>
<path d="M1670.14 197.335C1672.77 197.335 1674.9 195.201 1674.9 192.568C1674.9 189.936 1672.77 187.802 1670.14 187.802C1667.5 187.802 1665.37 189.936 1665.37 192.568C1665.37 195.201 1667.5 197.335 1670.14 197.335Z" fill="#4285F4"/>
<path d="M1668.23 197.335C1670.86 197.335 1673 195.201 1673 192.568C1673 189.936 1670.86 187.802 1668.23 187.802C1665.59 187.802 1663.46 189.936 1663.46 192.568C1663.46 195.201 1665.59 197.335 1668.23 197.335Z" fill="#4285F4"/>
<path d="M1669.66 197.335C1672.29 197.335 1674.43 195.201 1674.43 192.568C1674.43 189.936 1672.29 187.802 1669.66 187.802C1667.03 187.802 1664.89 189.936 1664.89 192.568C1664.89 195.201 1667.03 197.335 1669.66 197.335Z" fill="#4285F4"/>
<path d="M1669.66 197.335C1672.29 197.335 1674.43 195.201 1674.43 192.568C1674.43 189.936 1672.29 187.802 1669.66 187.802C1667.03 187.802 1664.89 189.936 1664.89 192.568C1664.89 195.201 1667.03 197.335 1669.66 197.335Z" fill="#4285F4"/>
<path d="M1670.14 197.335C1672.77 197.335 1674.9 195.201 1674.9 192.568C1674.9 189.936 1672.77 187.802 1670.14 187.802C1667.5 187.802 1665.37 189.936 1665.37 192.568C1665.37 195.201 1667.5 197.335 1670.14 197.335Z" fill="#4285F4"/>
<path d="M1669.66 197.335C1672.29 197.335 1674.43 195.201 1674.43 192.568C1674.43 189.936 1672.29 187.802 1669.66 187.802C1667.03 187.802 1664.89 189.936 1664.89 192.568C1664.89 195.201 1667.03 197.335 1669.66 197.335Z" fill="#4285F4"/>
<path d="M1669.66 197.335C1672.29 197.335 1674.43 195.201 1674.43 192.568C1674.43 189.936 1672.29 187.802 1669.66 187.802C1667.03 187.802 1664.89 189.936 1664.89 192.568C1664.89 195.201 1667.03 197.335 1669.66 197.335Z" fill="#4285F4"/>
<path d="M1669.66 197.335C1672.29 197.335 1674.43 195.201 1674.43 192.568C1674.43 189.936 1672.29 187.802 1669.66 187.802C1667.03 187.802 1664.89 189.936 1664.89 192.568C1664.89 195.201 1667.03 197.335 1669.66 197.335Z" fill="#4285F4"/>
<path d="M1669.66 197.335C1672.29 197.335 1674.43 195.201 1674.43 192.568C1674.43 189.936 1672.29 187.802 1669.66 187.802C1667.03 187.802 1664.89 189.936 1664.89 192.568C1664.89 195.201 1667.03 197.335 1669.66 197.335Z" fill="#4285F4"/>
<path d="M1668.23 197.335C1670.86 197.335 1673 195.201 1673 192.568C1673 189.936 1670.86 187.802 1668.23 187.802C1665.59 187.802 1663.46 189.936 1663.46 192.568C1663.46 195.201 1665.59 197.335 1668.23 197.335Z" fill="#4285F4"/>
<path d="M1668.23 197.335C1670.86 197.335 1673 195.201 1673 192.568C1673 189.936 1670.86 187.802 1668.23 187.802C1665.59 187.802 1663.46 189.936 1663.46 192.568C1663.46 195.201 1665.59 197.335 1668.23 197.335Z" fill="#4285F4"/>
<path d="M1669.66 197.335C1672.29 197.335 1674.43 195.201 1674.43 192.568C1674.43 189.936 1672.29 187.802 1669.66 187.802C1667.03 187.802 1664.89 189.936 1664.89 192.568C1664.89 195.201 1667.03 197.335 1669.66 197.335Z" fill="#4285F4"/>
<path d="M1669.66 197.335C1672.29 197.335 1674.43 195.201 1674.43 192.568C1674.43 189.936 1672.29 187.802 1669.66 187.802C1667.03 187.802 1664.89 189.936 1664.89 192.568C1664.89 195.201 1667.03 197.335 1669.66 197.335Z" fill="#4285F4"/>
<path d="M1669.66 197.335C1672.29 197.335 1674.43 195.201 1674.43 192.568C1674.43 189.936 1672.29 187.802 1669.66 187.802C1667.03 187.802 1664.89 189.936 1664.89 192.568C1664.89 195.201 1667.03 197.335 1669.66 197.335Z" fill="#4285F4"/>
<path d="M1669.66 197.335C1672.29 197.335 1674.43 195.201 1674.43 192.568C1674.43 189.936 1672.29 187.802 1669.66 187.802C1667.03 187.802 1664.89 189.936 1664.89 192.568C1664.89 195.201 1667.03 197.335 1669.66 197.335Z" fill="#4285F4"/>
<path d="M1575.24 255.486C1577.88 255.486 1580.01 253.352 1580.01 250.72C1580.01 248.087 1577.88 245.953 1575.24 245.953C1572.61 245.953 1570.48 248.087 1570.48 250.72C1570.48 253.352 1572.61 255.486 1575.24 255.486Z" fill="#4285F4"/>
<path d="M1574.29 267.403C1576.92 267.403 1579.06 265.269 1579.06 262.636C1579.06 260.004 1576.92 257.87 1574.29 257.87C1571.66 257.87 1569.52 260.004 1569.52 262.636C1569.52 265.269 1571.66 267.403 1574.29 267.403Z" fill="#4285F4"/>
<path d="M1581.92 287.899C1584.55 287.899 1586.69 285.765 1586.69 283.132C1586.69 280.5 1584.55 278.366 1581.92 278.366C1579.29 278.366 1577.15 280.5 1577.15 283.132C1577.15 285.765 1579.29 287.899 1581.92 287.899Z" fill="#4285F4"/>
<path d="M1579.06 307.918C1581.69 307.918 1583.83 305.784 1583.83 303.152C1583.83 300.519 1581.69 298.385 1579.06 298.385C1576.43 298.385 1574.29 300.519 1574.29 303.152C1574.29 305.784 1576.43 307.918 1579.06 307.918Z" fill="#4285F4"/>
<path d="M1560.46 350.34C1563.1 350.34 1565.23 348.206 1565.23 345.574C1565.23 342.941 1563.1 340.807 1560.46 340.807C1557.83 340.807 1555.69 342.941 1555.69 345.574C1555.69 348.206 1557.83 350.34 1560.46 350.34Z" fill="#4285F4"/>
<path d="M1522.79 276.936C1525.43 276.936 1527.56 274.802 1527.56 272.169C1527.56 269.537 1525.43 267.403 1522.79 267.403C1520.16 267.403 1518.02 269.537 1518.02 272.169C1518.02 274.802 1520.16 276.936 1522.79 276.936Z" fill="#4285F4"/>
<path d="M1502.76 300.292C1505.4 300.292 1507.53 298.158 1507.53 295.525C1507.53 292.893 1505.4 290.759 1502.76 290.759C1500.13 290.759 1498 292.893 1498 295.525C1498 298.158 1500.13 300.292 1502.76 300.292Z" fill="#4285F4"/>
<path d="M1513.25 304.582C1515.89 304.582 1518.02 302.448 1518.02 299.815C1518.02 297.183 1515.89 295.049 1513.25 295.049C1510.62 295.049 1508.49 297.183 1508.49 299.815C1508.49 302.448 1510.62 304.582 1513.25 304.582Z" fill="#4285F4"/>
<path d="M1491.32 326.984C1493.95 326.984 1496.09 324.85 1496.09 322.218C1496.09 319.585 1493.95 317.451 1491.32 317.451C1488.69 317.451 1486.55 319.585 1486.55 322.218C1486.55 324.85 1488.69 326.984 1491.32 326.984Z" fill="#4285F4"/>
<path d="M1504.67 341.284C1507.31 341.284 1509.44 339.15 1509.44 336.518C1509.44 333.885 1507.31 331.751 1504.67 331.751C1502.04 331.751 1499.9 333.885 1499.9 336.518C1499.9 339.15 1502.04 341.284 1504.67 341.284Z" fill="#4285F4"/>
<path d="M1503.24 367.023C1505.87 367.023 1508.01 364.889 1508.01 362.257C1508.01 359.624 1505.87 357.49 1503.24 357.49C1500.61 357.49 1498.47 359.624 1498.47 362.257C1498.47 364.889 1500.61 367.023 1503.24 367.023Z" fill="#4285F4"/>
<path d="M1505.15 378.463C1507.78 378.463 1509.92 376.329 1509.92 373.696C1509.92 371.064 1507.78 368.93 1505.15 368.93C1502.52 368.93 1500.38 371.064 1500.38 373.696C1500.38 376.329 1502.52 378.463 1505.15 378.463Z" fill="#4285F4"/>
<path d="M1498.47 397.529C1501.11 397.529 1503.24 395.395 1503.24 392.763C1503.24 390.13 1501.11 387.996 1498.47 387.996C1495.84 387.996 1493.7 390.13 1493.7 392.763C1493.7 395.395 1495.84 397.529 1498.47 397.529Z" fill="#4285F4"/>
<path d="M1501.33 426.128C1503.97 426.128 1506.1 423.994 1506.1 421.362C1506.1 418.729 1503.97 416.595 1501.33 416.595C1498.7 416.595 1496.57 418.729 1496.57 421.362C1496.57 423.994 1498.7 426.128 1501.33 426.128Z" fill="#4285F4"/>
<path d="M1494.18 457.588C1496.81 457.588 1498.95 455.453 1498.95 452.821C1498.95 450.188 1496.81 448.054 1494.18 448.054C1491.55 448.054 1489.41 450.188 1489.41 452.821C1489.41 455.453 1491.55 457.588 1494.18 457.588Z" fill="#4285F4"/>
<path d="M1514.69 500.486C1517.32 500.486 1519.45 498.352 1519.45 495.72C1519.45 493.087 1517.32 490.953 1514.69 490.953C1512.05 490.953 1509.92 493.087 1509.92 495.72C1509.92 498.352 1512.05 500.486 1514.69 500.486Z" fill="#4285F4"/>
<path d="M1488.94 483.327C1491.57 483.327 1493.7 481.193 1493.7 478.56C1493.7 475.928 1491.57 473.794 1488.94 473.794C1486.3 473.794 1484.17 475.928 1484.17 478.56C1484.17 481.193 1486.3 483.327 1488.94 483.327Z" fill="#4285F4"/>
<path d="M1484.17 493.337C1486.8 493.337 1488.94 491.202 1488.94 488.57C1488.94 485.938 1486.8 483.803 1484.17 483.803C1481.53 483.803 1479.4 485.938 1479.4 488.57C1479.4 491.202 1481.53 493.337 1484.17 493.337Z" fill="#4285F4"/>
<path d="M1498.47 505.253C1501.11 505.253 1503.24 503.119 1503.24 500.486C1503.24 497.854 1501.11 495.72 1498.47 495.72C1495.84 495.72 1493.7 497.854 1493.7 500.486C1493.7 503.119 1495.84 505.253 1498.47 505.253Z" fill="#4285F4"/>
<path d="M1498.47 524.796C1501.11 524.796 1503.24 522.662 1503.24 520.029C1503.24 517.397 1501.11 515.263 1498.47 515.263C1495.84 515.263 1493.7 517.397 1493.7 520.029C1493.7 522.662 1495.84 524.796 1498.47 524.796Z" fill="#4285F4"/>
<path d="M1487.03 512.879C1489.66 512.879 1491.8 510.745 1491.8 508.113C1491.8 505.48 1489.66 503.346 1487.03 503.346C1484.39 503.346 1482.26 505.48 1482.26 508.113C1482.26 510.745 1484.39 512.879 1487.03 512.879Z" fill="#4285F4"/>
<path d="M1474.63 510.019C1477.26 510.019 1479.4 507.885 1479.4 505.253C1479.4 502.62 1477.26 500.486 1474.63 500.486C1472 500.486 1469.86 502.62 1469.86 505.253C1469.86 507.885 1472 510.019 1474.63 510.019Z" fill="#4285F4"/>
<path d="M1465.09 523.842C1467.73 523.842 1469.86 521.708 1469.86 519.076C1469.86 516.443 1467.73 514.309 1465.09 514.309C1462.46 514.309 1460.33 516.443 1460.33 519.076C1460.33 521.708 1462.46 523.842 1465.09 523.842Z" fill="#4285F4"/>
<path d="M1474.63 526.226C1477.26 526.226 1479.4 524.092 1479.4 521.459C1479.4 518.827 1477.26 516.693 1474.63 516.693C1472 516.693 1469.86 518.827 1469.86 521.459C1469.86 524.092 1472 526.226 1474.63 526.226Z" fill="#4285F4"/>
<path d="M1459.85 521.459C1462.48 521.459 1464.62 519.325 1464.62 516.693C1464.62 514.06 1462.48 511.926 1459.85 511.926C1457.21 511.926 1455.08 514.06 1455.08 516.693C1455.08 519.325 1457.21 521.459 1459.85 521.459Z" fill="#4285F4"/>
<path d="M1455.08 521.459C1457.71 521.459 1459.85 519.325 1459.85 516.693C1459.85 514.06 1457.71 511.926 1455.08 511.926C1452.45 511.926 1450.31 514.06 1450.31 516.693C1450.31 519.325 1452.45 521.459 1455.08 521.459Z" fill="#4285F4"/>
<path d="M1450.79 503.346C1453.42 503.346 1455.56 501.212 1455.56 498.58C1455.56 495.947 1453.42 493.813 1450.79 493.813C1448.16 493.813 1446.02 495.947 1446.02 498.58C1446.02 501.212 1448.16 503.346 1450.79 503.346Z" fill="#4285F4"/>
<path d="M1462.23 498.103C1464.87 498.103 1467 495.969 1467 493.337C1467 490.704 1464.87 488.57 1462.23 488.57C1459.6 488.57 1457.46 490.704 1457.46 493.337C1457.46 495.969 1459.6 498.103 1462.23 498.103Z" fill="#4285F4"/>
<path d="M1451.27 485.71C1453.9 485.71 1456.03 483.576 1456.03 480.944C1456.03 478.311 1453.9 476.177 1451.27 476.177C1448.63 476.177 1446.5 478.311 1446.5 480.944C1446.5 483.576 1448.63 485.71 1451.27 485.71Z" fill="#4285F4"/>
<path d="M1439.34 428.988C1441.98 428.988 1444.11 426.854 1444.11 424.222C1444.11 421.589 1441.98 419.455 1439.34 419.455C1436.71 419.455 1434.58 421.589 1434.58 424.222C1434.58 426.854 1436.71 428.988 1439.34 428.988Z" fill="#4285F4"/>
<path d="M1440.78 447.578C1443.41 447.578 1445.54 445.444 1445.54 442.811C1445.54 440.179 1443.41 438.045 1440.78 438.045C1438.14 438.045 1436.01 440.179 1436.01 442.811C1436.01 445.444 1438.14 447.578 1440.78 447.578Z" fill="#4285F4"/>
<path d="M1457.46 428.988C1460.1 428.988 1462.23 426.854 1462.23 424.222C1462.23 421.589 1460.1 419.455 1457.46 419.455C1454.83 419.455 1452.7 421.589 1452.7 424.222C1452.7 426.854 1454.83 428.988 1457.46 428.988Z" fill="#4285F4"/>
<path d="M1456.03 428.988C1458.67 428.988 1460.8 426.854 1460.8 424.222C1460.8 421.589 1458.67 419.455 1456.03 419.455C1453.4 419.455 1451.27 421.589 1451.27 424.222C1451.27 426.854 1453.4 428.988 1456.03 428.988Z" fill="#4285F4"/>
<path d="M1456.03 445.671C1458.67 445.671 1460.8 443.537 1460.8 440.905C1460.8 438.272 1458.67 436.138 1456.03 436.138C1453.4 436.138 1451.27 438.272 1451.27 440.905C1451.27 443.537 1453.4 445.671 1456.03 445.671Z" fill="#4285F4"/>
<path d="M1433.62 364.64C1436.26 364.64 1438.39 362.506 1438.39 359.873C1438.39 357.241 1436.26 355.107 1433.62 355.107C1430.99 355.107 1428.85 357.241 1428.85 359.873C1428.85 362.506 1430.99 364.64 1433.62 364.64Z" fill="#4285F4"/>
<path d="M1521.84 322.218C1524.47 322.218 1526.61 320.084 1526.61 317.451C1526.61 314.819 1524.47 312.685 1521.84 312.685C1519.2 312.685 1517.07 314.819 1517.07 317.451C1517.07 320.084 1519.2 322.218 1521.84 322.218Z" fill="#4285F4"/>
<path d="M1524.7 296.002C1527.33 296.002 1529.47 293.868 1529.47 291.235C1529.47 288.603 1527.33 286.469 1524.7 286.469C1522.07 286.469 1519.93 288.603 1519.93 291.235C1519.93 293.868 1522.07 296.002 1524.7 296.002Z" fill="#4285F4"/>
<path d="M1527.56 393.716C1530.19 393.716 1532.33 391.582 1532.33 388.949C1532.33 386.317 1530.19 384.183 1527.56 384.183C1524.93 384.183 1522.79 386.317 1522.79 388.949C1522.79 391.582 1524.93 393.716 1527.56 393.716Z" fill="#4285F4"/>
<path d="M1519.93 407.539C1522.56 407.539 1524.7 405.405 1524.7 402.772C1524.7 400.14 1522.56 398.006 1519.93 398.006C1517.3 398.006 1515.16 400.14 1515.16 402.772C1515.16 405.405 1517.3 407.539 1519.93 407.539Z" fill="#4285F4"/>
<path d="M1475.11 441.381C1477.74 441.381 1479.88 439.247 1479.88 436.615C1479.88 433.982 1477.74 431.848 1475.11 431.848C1472.47 431.848 1470.34 433.982 1470.34 436.615C1470.34 439.247 1472.47 441.381 1475.11 441.381Z" fill="#4285F4"/>
<path d="M1477.01 454.728C1479.65 454.728 1481.78 452.594 1481.78 449.961C1481.78 447.329 1479.65 445.195 1477.01 445.195C1474.38 445.195 1472.25 447.329 1472.25 449.961C1472.25 452.594 1474.38 454.728 1477.01 454.728Z" fill="#4285F4"/>
<path d="M1456.03 428.988C1458.67 428.988 1460.8 426.854 1460.8 424.222C1460.8 421.589 1458.67 419.455 1456.03 419.455C1453.4 419.455 1451.27 421.589 1451.27 424.222C1451.27 426.854 1453.4 428.988 1456.03 428.988Z" fill="#4285F4"/>
<path d="M1548.06 480.944C1550.7 480.944 1552.83 478.81 1552.83 476.177C1552.83 473.545 1550.7 471.411 1548.06 471.411C1545.43 471.411 1543.3 473.545 1543.3 476.177C1543.3 478.81 1545.43 480.944 1548.06 480.944Z" fill="#4285F4"/>
<path d="M1549.02 498.58C1551.65 498.58 1553.79 496.446 1553.79 493.813C1553.79 491.181 1551.65 489.047 1549.02 489.047C1546.38 489.047 1544.25 491.181 1544.25 493.813C1544.25 496.446 1546.38 498.58 1549.02 498.58Z" fill="#4285F4"/>
<path d="M1551.4 534.329C1554.04 534.329 1556.17 532.195 1556.17 529.562C1556.17 526.93 1554.04 524.796 1551.4 524.796C1548.77 524.796 1546.63 526.93 1546.63 529.562C1546.63 532.195 1548.77 534.329 1551.4 534.329Z" fill="#4285F4"/>
<path d="M1539 560.068C1541.64 560.068 1543.77 557.934 1543.77 555.302C1543.77 552.669 1541.64 550.535 1539 550.535C1536.37 550.535 1534.24 552.669 1534.24 555.302C1534.24 557.934 1536.37 560.068 1539 560.068Z" fill="#4285F4"/>
<path d="M1527.56 541.479C1530.19 541.479 1532.33 539.345 1532.33 536.712C1532.33 534.08 1530.19 531.946 1527.56 531.946C1524.93 531.946 1522.79 534.08 1522.79 536.712C1522.79 539.345 1524.93 541.479 1527.56 541.479Z" fill="#4285F4"/>
<path d="M1486.07 538.619C1488.71 538.619 1490.84 536.485 1490.84 533.852C1490.84 531.22 1488.71 529.086 1486.07 529.086C1483.44 529.086 1481.31 531.22 1481.31 533.852C1481.31 536.485 1483.44 538.619 1486.07 538.619Z" fill="#4285F4"/>
<path d="M1460.8 545.768C1463.44 545.768 1465.57 543.634 1465.57 541.002C1465.57 538.369 1463.44 536.235 1460.8 536.235C1458.17 536.235 1456.03 538.369 1456.03 541.002C1456.03 543.634 1458.17 545.768 1460.8 545.768Z" fill="#4285F4"/>
<path d="M1472.25 554.825C1474.88 554.825 1477.01 552.691 1477.01 550.058C1477.01 547.426 1474.88 545.292 1472.25 545.292C1469.61 545.292 1467.48 547.426 1467.48 550.058C1467.48 552.691 1469.61 554.825 1472.25 554.825Z" fill="#4285F4"/>
<path d="M1509.92 560.068C1512.55 560.068 1514.69 557.934 1514.69 555.302C1514.69 552.669 1512.55 550.535 1509.92 550.535C1507.28 550.535 1505.15 552.669 1505.15 555.302C1505.15 557.934 1507.28 560.068 1509.92 560.068Z" fill="#4285F4"/>
<path d="M1517.55 570.078C1520.18 570.078 1522.31 567.944 1522.31 565.311C1522.31 562.679 1520.18 560.545 1517.55 560.545C1514.91 560.545 1512.78 562.679 1512.78 565.311C1512.78 567.944 1514.91 570.078 1517.55 570.078Z" fill="#4285F4"/>
<path d="M1519.93 589.144C1522.56 589.144 1524.7 587.01 1524.7 584.377C1524.7 581.745 1522.56 579.611 1519.93 579.611C1517.3 579.611 1515.16 581.745 1515.16 584.377C1515.16 587.01 1517.3 589.144 1519.93 589.144Z" fill="#4285F4"/>
<path d="M1509.92 586.284C1512.55 586.284 1514.69 584.15 1514.69 581.518C1514.69 578.885 1512.55 576.751 1509.92 576.751C1507.28 576.751 1505.15 578.885 1505.15 581.518C1505.15 584.15 1507.28 586.284 1509.92 586.284Z" fill="#4285F4"/>
<path d="M1498.47 562.451C1501.11 562.451 1503.24 560.317 1503.24 557.685C1503.24 555.052 1501.11 552.918 1498.47 552.918C1495.84 552.918 1493.7 555.052 1493.7 557.685C1493.7 560.317 1495.84 562.451 1498.47 562.451Z" fill="#4285F4"/>
<path d="M1484.17 569.125C1486.8 569.125 1488.94 566.99 1488.94 564.358C1488.94 561.725 1486.8 559.591 1484.17 559.591C1481.53 559.591 1479.4 561.725 1479.4 564.358C1479.4 566.99 1481.53 569.125 1484.17 569.125Z" fill="#4285F4"/>
<path d="M1488.94 567.695C1491.57 567.695 1493.7 565.561 1493.7 562.928C1493.7 560.296 1491.57 558.161 1488.94 558.161C1486.3 558.161 1484.17 560.296 1484.17 562.928C1484.17 565.561 1486.3 567.695 1488.94 567.695Z" fill="#4285F4"/>
<path d="M1496.09 565.311C1498.72 565.311 1500.86 563.177 1500.86 560.545C1500.86 557.912 1498.72 555.778 1496.09 555.778C1493.45 555.778 1491.32 557.912 1491.32 560.545C1491.32 563.177 1493.45 565.311 1496.09 565.311Z" fill="#4285F4"/>
<path d="M1498.47 557.685C1501.11 557.685 1503.24 555.551 1503.24 552.918C1503.24 550.286 1501.11 548.152 1498.47 548.152C1495.84 548.152 1493.7 550.286 1493.7 552.918C1493.7 555.551 1495.84 557.685 1498.47 557.685Z" fill="#4285F4"/>
<path d="M1526.61 614.407C1529.24 614.407 1531.37 612.273 1531.37 609.64C1531.37 607.008 1529.24 604.874 1526.61 604.874C1523.97 604.874 1521.84 607.008 1521.84 609.64C1521.84 612.273 1523.97 614.407 1526.61 614.407Z" fill="#4285F4"/>
<path d="M1513.25 612.5C1515.89 612.5 1518.02 610.366 1518.02 607.733C1518.02 605.101 1515.89 602.967 1513.25 602.967C1510.62 602.967 1508.49 605.101 1508.49 607.733C1508.49 610.366 1510.62 612.5 1513.25 612.5Z" fill="#4285F4"/>
<path d="M1508.49 601.06C1511.12 601.06 1513.25 598.926 1513.25 596.294C1513.25 593.661 1511.12 591.527 1508.49 591.527C1505.85 591.527 1503.72 593.661 1503.72 596.294C1503.72 598.926 1505.85 601.06 1508.49 601.06Z" fill="#4285F4"/>
<path d="M1517.55 602.49C1520.18 602.49 1522.31 600.356 1522.31 597.724C1522.31 595.091 1520.18 592.957 1517.55 592.957C1514.91 592.957 1512.78 595.091 1512.78 597.724C1512.78 600.356 1514.91 602.49 1517.55 602.49Z" fill="#4285F4"/>
<path d="M1534.71 621.556C1537.35 621.556 1539.48 619.422 1539.48 616.79C1539.48 614.157 1537.35 612.023 1534.71 612.023C1532.08 612.023 1529.94 614.157 1529.94 616.79C1529.94 619.422 1532.08 621.556 1534.71 621.556Z" fill="#4285F4"/>
<path d="M1537.1 631.089C1539.73 631.089 1541.87 628.955 1541.87 626.323C1541.87 623.69 1539.73 621.556 1537.1 621.556C1534.46 621.556 1532.33 623.69 1532.33 626.323C1532.33 628.955 1534.46 631.089 1537.1 631.089Z" fill="#4285F4"/>
<path d="M1522.79 638.239C1525.43 638.239 1527.56 636.105 1527.56 633.473C1527.56 630.84 1525.43 628.706 1522.79 628.706C1520.16 628.706 1518.02 630.84 1518.02 633.473C1518.02 636.105 1520.16 638.239 1522.79 638.239Z" fill="#4285F4"/>
<path d="M1496.57 622.033C1499.2 622.033 1501.33 619.899 1501.33 617.267C1501.33 614.634 1499.2 612.5 1496.57 612.5C1493.93 612.5 1491.8 614.634 1491.8 617.267C1491.8 619.899 1493.93 622.033 1496.57 622.033Z" fill="#4285F4"/>
<path d="M1498 605.827C1500.63 605.827 1502.76 603.693 1502.76 601.06C1502.76 598.428 1500.63 596.294 1498 596.294C1495.36 596.294 1493.23 598.428 1493.23 601.06C1493.23 603.693 1495.36 605.827 1498 605.827Z" fill="#4285F4"/>
<path d="M1502.76 650.632C1505.4 650.632 1507.53 648.498 1507.53 645.866C1507.53 643.233 1505.4 641.099 1502.76 641.099C1500.13 641.099 1498 643.233 1498 645.866C1498 648.498 1500.13 650.632 1502.76 650.632Z" fill="#4285F4"/>
<path d="M1513.25 676.848C1515.89 676.848 1518.02 674.714 1518.02 672.082C1518.02 669.449 1515.89 667.315 1513.25 667.315C1510.62 667.315 1508.49 669.449 1508.49 672.082C1508.49 674.714 1510.62 676.848 1513.25 676.848Z" fill="#4285F4"/>
<path d="M1505.15 688.765C1507.78 688.765 1509.92 686.63 1509.92 683.998C1509.92 681.365 1507.78 679.231 1505.15 679.231C1502.52 679.231 1500.38 681.365 1500.38 683.998C1500.38 686.63 1502.52 688.765 1505.15 688.765Z" fill="#4285F4"/>
<path d="M1518.02 734.523C1520.66 734.523 1522.79 732.389 1522.79 729.757C1522.79 727.124 1520.66 724.99 1518.02 724.99C1515.39 724.99 1513.25 727.124 1513.25 729.757C1513.25 732.389 1515.39 734.523 1518.02 734.523Z" fill="#4285F4"/>
<path d="M1512.78 769.796C1515.41 769.796 1517.55 767.662 1517.55 765.029C1517.55 762.397 1515.41 760.263 1512.78 760.263C1510.14 760.263 1508.01 762.397 1508.01 765.029C1508.01 767.662 1510.14 769.796 1512.78 769.796Z" fill="#4285F4"/>
<path d="M1484.64 805.545C1487.28 805.545 1489.41 803.411 1489.41 800.778C1489.41 798.146 1487.28 796.012 1484.64 796.012C1482.01 796.012 1479.88 798.146 1479.88 800.778C1479.88 803.411 1482.01 805.545 1484.64 805.545Z" fill="#4285F4"/>
<path d="M1521.84 813.171C1524.47 813.171 1526.61 811.037 1526.61 808.405C1526.61 805.772 1524.47 803.638 1521.84 803.638C1519.2 803.638 1517.07 805.772 1517.07 808.405C1517.07 811.037 1519.2 813.171 1521.84 813.171Z" fill="#4285F4"/>
<path d="M1539 826.994C1541.64 826.994 1543.77 824.86 1543.77 822.228C1543.77 819.595 1541.64 817.461 1539 817.461C1536.37 817.461 1534.24 819.595 1534.24 822.228C1534.24 824.86 1536.37 826.994 1539 826.994Z" fill="#4285F4"/>
<path d="M1539.48 846.537C1542.11 846.537 1544.25 844.403 1544.25 841.77C1544.25 839.138 1542.11 837.004 1539.48 837.004C1536.85 837.004 1534.71 839.138 1534.71 841.77C1534.71 844.403 1536.85 846.537 1539.48 846.537Z" fill="#4285F4"/>
<path d="M1550.93 846.537C1553.56 846.537 1555.69 844.403 1555.69 841.77C1555.69 839.138 1553.56 837.004 1550.93 837.004C1548.29 837.004 1546.16 839.138 1546.16 841.77C1546.16 844.403 1548.29 846.537 1550.93 846.537Z" fill="#4285F4"/>
<path d="M1555.22 837.004C1557.85 837.004 1559.99 834.87 1559.99 832.237C1559.99 829.605 1557.85 827.471 1555.22 827.471C1552.58 827.471 1550.45 829.605 1550.45 832.237C1550.45 834.87 1552.58 837.004 1555.22 837.004Z" fill="#4285F4"/>
<path d="M1556.17 840.817C1558.8 840.817 1560.94 838.683 1560.94 836.05C1560.94 833.418 1558.8 831.284 1556.17 831.284C1553.54 831.284 1551.4 833.418 1551.4 836.05C1551.4 838.683 1553.54 840.817 1556.17 840.817Z" fill="#4285F4"/>
<path d="M1574.29 850.35C1576.92 850.35 1579.06 848.216 1579.06 845.584C1579.06 842.951 1576.92 840.817 1574.29 840.817C1571.66 840.817 1569.52 842.951 1569.52 845.584C1569.52 848.216 1571.66 850.35 1574.29 850.35Z" fill="#4285F4"/>
<path d="M1572.38 850.35C1575.02 850.35 1577.15 848.216 1577.15 845.584C1577.15 842.951 1575.02 840.817 1572.38 840.817C1569.75 840.817 1567.61 842.951 1567.61 845.584C1567.61 848.216 1569.75 850.35 1572.38 850.35Z" fill="#4285F4"/>
<path d="M1582.4 853.21C1585.03 853.21 1587.16 851.076 1587.16 848.444C1587.16 845.811 1585.03 843.677 1582.4 843.677C1579.76 843.677 1577.63 845.811 1577.63 848.444C1577.63 851.076 1579.76 853.21 1582.4 853.21Z" fill="#4285F4"/>
<path d="M1582.4 855.117C1585.03 855.117 1587.16 852.983 1587.16 850.35C1587.16 847.718 1585.03 845.584 1582.4 845.584C1579.76 845.584 1577.63 847.718 1577.63 850.35C1577.63 852.983 1579.76 855.117 1582.4 855.117Z" fill="#4285F4"/>
<path d="M1584.3 857.977C1586.94 857.977 1589.07 855.843 1589.07 853.21C1589.07 850.578 1586.94 848.444 1584.3 848.444C1581.67 848.444 1579.54 850.578 1579.54 853.21C1579.54 855.843 1581.67 857.977 1584.3 857.977Z" fill="#4285F4"/>
<path d="M1584.3 857.977C1586.94 857.977 1589.07 855.843 1589.07 853.21C1589.07 850.578 1586.94 848.444 1584.3 848.444C1581.67 848.444 1579.54 850.578 1579.54 853.21C1579.54 855.843 1581.67 857.977 1584.3 857.977Z" fill="#4285F4"/>
<path d="M1582.4 855.117C1585.03 855.117 1587.16 852.983 1587.16 850.35C1587.16 847.718 1585.03 845.584 1582.4 845.584C1579.76 845.584 1577.63 847.718 1577.63 850.35C1577.63 852.983 1579.76 855.117 1582.4 855.117Z" fill="#4285F4"/>
<path d="M1593.84 862.266C1596.47 862.266 1598.61 860.132 1598.61 857.5C1598.61 854.867 1596.47 852.733 1593.84 852.733C1591.21 852.733 1589.07 854.867 1589.07 857.5C1589.07 860.132 1591.21 862.266 1593.84 862.266Z" fill="#4285F4"/>
<path d="M1590.98 860.837C1593.61 860.837 1595.75 858.702 1595.75 856.07C1595.75 853.438 1593.61 851.303 1590.98 851.303C1588.35 851.303 1586.21 853.438 1586.21 856.07C1586.21 858.702 1588.35 860.837 1590.98 860.837Z" fill="#4285F4"/>
<path d="M1596.22 860.36C1598.86 860.36 1600.99 858.226 1600.99 855.593C1600.99 852.961 1598.86 850.827 1596.22 850.827C1593.59 850.827 1591.46 852.961 1591.46 855.593C1591.46 858.226 1593.59 860.36 1596.22 860.36Z" fill="#4285F4"/>
<path d="M1595.75 865.126C1598.38 865.126 1600.52 862.992 1600.52 860.36C1600.52 857.727 1598.38 855.593 1595.75 855.593C1593.11 855.593 1590.98 857.727 1590.98 860.36C1590.98 862.992 1593.11 865.126 1595.75 865.126Z" fill="#4285F4"/>
<path d="M1608.15 874.66C1610.78 874.66 1612.91 872.525 1612.91 869.893C1612.91 867.261 1610.78 865.126 1608.15 865.126C1605.51 865.126 1603.38 867.261 1603.38 869.893C1603.38 872.525 1605.51 874.66 1608.15 874.66Z" fill="#4285F4"/>
<path d="M1617.68 881.809C1620.32 881.809 1622.45 879.675 1622.45 877.043C1622.45 874.41 1620.32 872.276 1617.68 872.276C1615.05 872.276 1612.91 874.41 1612.91 877.043C1612.91 879.675 1615.05 881.809 1617.68 881.809Z" fill="#4285F4"/>
<path d="M1619.59 887.053C1622.22 887.053 1624.36 884.919 1624.36 882.286C1624.36 879.654 1622.22 877.52 1619.59 877.52C1616.96 877.52 1614.82 879.654 1614.82 882.286C1614.82 884.919 1616.96 887.053 1619.59 887.053Z" fill="#4285F4"/>
<path d="M1636.28 894.202C1638.91 894.202 1641.05 892.068 1641.05 889.436C1641.05 886.803 1638.91 884.669 1636.28 884.669C1633.65 884.669 1631.51 886.803 1631.51 889.436C1631.51 892.068 1633.65 894.202 1636.28 894.202Z" fill="#4285F4"/>
<path d="M1645.82 895.632C1648.45 895.632 1650.58 893.498 1650.58 890.866C1650.58 888.233 1648.45 886.099 1645.82 886.099C1643.18 886.099 1641.05 888.233 1641.05 890.866C1641.05 893.498 1643.18 895.632 1645.82 895.632Z" fill="#4285F4"/>
<path d="M1703.99 919.942C1706.62 919.942 1708.76 917.808 1708.76 915.175C1708.76 912.543 1706.62 910.409 1703.99 910.409C1701.36 910.409 1699.22 912.543 1699.22 915.175C1699.22 917.808 1701.36 919.942 1703.99 919.942Z" fill="#4285F4"/>
<path d="M1705.9 920.418C1708.53 920.418 1710.67 918.284 1710.67 915.652C1710.67 913.019 1708.53 910.885 1705.9 910.885C1703.27 910.885 1701.13 913.019 1701.13 915.652C1701.13 918.284 1703.27 920.418 1705.9 920.418Z" fill="#4285F4"/>
<path d="M1705.9 920.418C1708.53 920.418 1710.67 918.284 1710.67 915.652C1710.67 913.019 1708.53 910.885 1705.9 910.885C1703.27 910.885 1701.13 913.019 1701.13 915.652C1701.13 918.284 1703.27 920.418 1705.9 920.418Z" fill="#4285F4"/>
<path d="M1705.9 920.418C1708.53 920.418 1710.67 918.284 1710.67 915.652C1710.67 913.019 1708.53 910.885 1705.9 910.885C1703.27 910.885 1701.13 913.019 1701.13 915.652C1701.13 918.284 1703.27 920.418 1705.9 920.418Z" fill="#4285F4"/>
<path d="M1810.33 443.765C1812.96 443.765 1815.09 441.63 1815.09 438.998C1815.09 436.365 1812.96 434.231 1810.33 434.231C1807.69 434.231 1805.56 436.365 1805.56 438.998C1805.56 441.63 1807.69 443.765 1810.33 443.765Z" fill="#4285F4"/>
<path d="M1746.43 405.632C1749.06 405.632 1751.2 403.498 1751.2 400.866C1751.2 398.233 1749.06 396.099 1746.43 396.099C1743.8 396.099 1741.66 398.233 1741.66 400.866C1741.66 403.498 1743.8 405.632 1746.43 405.632Z" fill="#4285F4"/>
<path d="M1729.74 417.549C1732.37 417.549 1734.51 415.415 1734.51 412.782C1734.51 410.15 1732.37 408.016 1729.74 408.016C1727.11 408.016 1724.97 410.15 1724.97 412.782C1724.97 415.415 1727.11 417.549 1729.74 417.549Z" fill="#4285F4"/>
<path d="M1708.76 399.912C1711.39 399.912 1713.53 397.778 1713.53 395.146C1713.53 392.513 1711.39 390.379 1708.76 390.379C1706.13 390.379 1703.99 392.513 1703.99 395.146C1703.99 397.778 1706.13 399.912 1708.76 399.912Z" fill="#4285F4"/>
<path d="M1612.91 431.372C1615.55 431.372 1617.68 429.238 1617.68 426.605C1617.68 423.973 1615.55 421.839 1612.91 421.839C1610.28 421.839 1608.15 423.973 1608.15 426.605C1608.15 429.238 1610.28 431.372 1612.91 431.372Z" fill="#4285F4"/>
<path d="M1583.83 561.975C1586.46 561.975 1588.6 559.841 1588.6 557.208C1588.6 554.576 1586.46 552.442 1583.83 552.442C1581.19 552.442 1579.06 554.576 1579.06 557.208C1579.06 559.841 1581.19 561.975 1583.83 561.975Z" fill="#4285F4"/>
<path d="M1565.71 607.734C1568.34 607.734 1570.48 605.599 1570.48 602.967C1570.48 600.334 1568.34 598.2 1565.71 598.2C1563.07 598.2 1560.94 600.334 1560.94 602.967C1560.94 605.599 1563.07 607.734 1565.71 607.734Z" fill="#4285F4"/>
<path d="M1555.69 626.8C1558.33 626.8 1560.46 624.666 1560.46 622.033C1560.46 619.401 1558.33 617.267 1555.69 617.267C1553.06 617.267 1550.93 619.401 1550.93 622.033C1550.93 624.666 1553.06 626.8 1555.69 626.8Z" fill="#4285F4"/>
<path d="M1531.85 662.549C1534.49 662.549 1536.62 660.415 1536.62 657.782C1536.62 655.15 1534.49 653.016 1531.85 653.016C1529.22 653.016 1527.08 655.15 1527.08 657.782C1527.08 660.415 1529.22 662.549 1531.85 662.549Z" fill="#4285F4"/>
<path d="M1537.1 688.288C1539.73 688.288 1541.87 686.154 1541.87 683.521C1541.87 680.889 1539.73 678.755 1537.1 678.755C1534.46 678.755 1532.33 680.889 1532.33 683.521C1532.33 686.154 1534.46 688.288 1537.1 688.288Z" fill="#4285F4"/>
<path d="M1543.3 700.681C1545.93 700.681 1548.06 698.547 1548.06 695.914C1548.06 693.282 1545.93 691.148 1543.3 691.148C1540.66 691.148 1538.53 693.282 1538.53 695.914C1538.53 698.547 1540.66 700.681 1543.3 700.681Z" fill="#4285F4"/>
<path d="M1550.45 707.831C1553.08 707.831 1555.22 705.697 1555.22 703.064C1555.22 700.432 1553.08 698.298 1550.45 698.298C1547.81 698.298 1545.68 700.432 1545.68 703.064C1545.68 705.697 1547.81 707.831 1550.45 707.831Z" fill="#4285F4"/>
<path d="M1565.23 721.654C1567.86 721.654 1570 719.52 1570 716.887C1570 714.255 1567.86 712.121 1565.23 712.121C1562.6 712.121 1560.46 714.255 1560.46 716.887C1560.46 719.52 1562.6 721.654 1565.23 721.654Z" fill="#4285F4"/>
<path d="M1610.05 707.831C1612.69 707.831 1614.82 705.697 1614.82 703.064C1614.82 700.432 1612.69 698.298 1610.05 698.298C1607.42 698.298 1605.29 700.432 1605.29 703.064C1605.29 705.697 1607.42 707.831 1610.05 707.831Z" fill="#4285F4"/>
<path d="M1538.53 788.862C1541.16 788.862 1543.3 786.728 1543.3 784.095C1543.3 781.463 1541.16 779.329 1538.53 779.329C1535.89 779.329 1533.76 781.463 1533.76 784.095C1533.76 786.728 1535.89 788.862 1538.53 788.862Z" fill="#4285F4"/>
<path d="M1546.16 798.395C1548.79 798.395 1550.93 796.261 1550.93 793.628C1550.93 790.996 1548.79 788.862 1546.16 788.862C1543.52 788.862 1541.39 790.996 1541.39 793.628C1541.39 796.261 1543.52 798.395 1546.16 798.395Z" fill="#4285F4"/>
<path d="M1555.69 812.218C1558.33 812.218 1560.46 810.084 1560.46 807.451C1560.46 804.819 1558.33 802.685 1555.69 802.685C1553.06 802.685 1550.93 804.819 1550.93 807.451C1550.93 810.084 1553.06 812.218 1555.69 812.218Z" fill="#4285F4"/>
<path d="M1574.77 826.517C1577.4 826.517 1579.54 824.383 1579.54 821.751C1579.54 819.118 1577.4 816.984 1574.77 816.984C1572.13 816.984 1570 819.118 1570 821.751C1570 824.383 1572.13 826.517 1574.77 826.517Z" fill="#4285F4"/>
<path d="M1589.07 837.481C1591.71 837.481 1593.84 835.347 1593.84 832.714C1593.84 830.082 1591.71 827.948 1589.07 827.948C1586.44 827.948 1584.3 830.082 1584.3 832.714C1584.3 835.347 1586.44 837.481 1589.07 837.481Z" fill="#4285F4"/>
<path d="M1608.15 850.827C1610.78 850.827 1612.91 848.693 1612.91 846.06C1612.91 843.428 1610.78 841.294 1608.15 841.294C1605.51 841.294 1603.38 843.428 1603.38 846.06C1603.38 848.693 1605.51 850.827 1608.15 850.827Z" fill="#4285F4"/>
<path d="M1615.78 862.743C1618.41 862.743 1620.54 860.609 1620.54 857.977C1620.54 855.344 1618.41 853.21 1615.78 853.21C1613.14 853.21 1611.01 855.344 1611.01 857.977C1611.01 860.609 1613.14 862.743 1615.78 862.743Z" fill="#4285F4"/>
<path d="M1617.68 881.809C1620.32 881.809 1622.45 879.675 1622.45 877.043C1622.45 874.41 1620.32 872.276 1617.68 872.276C1615.05 872.276 1612.91 874.41 1612.91 877.043C1612.91 879.675 1615.05 881.809 1617.68 881.809Z" fill="#4285F4"/>
<path d="M1541.39 745.486C1544.02 745.486 1546.16 743.352 1546.16 740.72C1546.16 738.087 1544.02 735.953 1541.39 735.953C1538.75 735.953 1536.62 738.087 1536.62 740.72C1536.62 743.352 1538.75 745.486 1541.39 745.486Z" fill="#4285F4"/>
<path d="M1558.55 748.346C1561.19 748.346 1563.32 746.212 1563.32 743.58C1563.32 740.947 1561.19 738.813 1558.55 738.813C1555.92 738.813 1553.79 740.947 1553.79 743.58C1553.79 746.212 1555.92 748.346 1558.55 748.346Z" fill="#4285F4"/>
<path d="M1540.91 748.346C1543.54 748.346 1545.68 746.212 1545.68 743.58C1545.68 740.947 1543.54 738.813 1540.91 738.813C1538.28 738.813 1536.14 740.947 1536.14 743.58C1536.14 746.212 1538.28 748.346 1540.91 748.346Z" fill="#4285F4"/>
<path d="M1540.91 757.879C1543.54 757.879 1545.68 755.745 1545.68 753.113C1545.68 750.48 1543.54 748.346 1540.91 748.346C1538.28 748.346 1536.14 750.48 1536.14 753.113C1536.14 755.745 1538.28 757.879 1540.91 757.879Z" fill="#4285F4"/>
<path d="M1546.16 782.189C1548.79 782.189 1550.93 780.055 1550.93 777.422C1550.93 774.79 1548.79 772.656 1546.16 772.656C1543.52 772.656 1541.39 774.79 1541.39 777.422C1541.39 780.055 1543.52 782.189 1546.16 782.189Z" fill="#4285F4"/>
<path d="M1555.69 764.552C1558.33 764.552 1560.46 762.418 1560.46 759.786C1560.46 757.153 1558.33 755.019 1555.69 755.019C1553.06 755.019 1550.93 757.153 1550.93 759.786C1550.93 762.418 1553.06 764.552 1555.69 764.552Z" fill="#4285F4"/>
<path d="M1564.75 769.319C1567.39 769.319 1569.52 767.185 1569.52 764.552C1569.52 761.92 1567.39 759.786 1564.75 759.786C1562.12 759.786 1559.99 761.92 1559.99 764.552C1559.99 767.185 1562.12 769.319 1564.75 769.319Z" fill="#4285F4"/>
<path d="M1546.16 716.887C1548.79 716.887 1550.93 714.753 1550.93 712.121C1550.93 709.488 1548.79 707.354 1546.16 707.354C1543.52 707.354 1541.39 709.488 1541.39 712.121C1541.39 714.753 1543.52 716.887 1546.16 716.887Z" fill="#4285F4"/>
<path d="M1589.07 745.486C1591.71 745.486 1593.84 743.352 1593.84 740.72C1593.84 738.087 1591.71 735.953 1589.07 735.953C1586.44 735.953 1584.3 738.087 1584.3 740.72C1584.3 743.352 1586.44 745.486 1589.07 745.486Z" fill="#4285F4"/>
<path d="M1560.46 716.887C1563.1 716.887 1565.23 714.753 1565.23 712.121C1565.23 709.488 1563.1 707.354 1560.46 707.354C1557.83 707.354 1555.69 709.488 1555.69 712.121C1555.69 714.753 1557.83 716.887 1560.46 716.887Z" fill="#4285F4"/>
<path d="M1564.75 700.681C1567.39 700.681 1569.52 698.547 1569.52 695.914C1569.52 693.282 1567.39 691.148 1564.75 691.148C1562.12 691.148 1559.99 693.282 1559.99 695.914C1559.99 698.547 1562.12 700.681 1564.75 700.681Z" fill="#4285F4"/>
<path d="M1550.93 698.298C1553.56 698.298 1555.69 696.164 1555.69 693.531C1555.69 690.899 1553.56 688.765 1550.93 688.765C1548.29 688.765 1546.16 690.899 1546.16 693.531C1546.16 696.164 1548.29 698.298 1550.93 698.298Z" fill="#4285F4"/>
<path d="M1541.39 695.438C1544.02 695.438 1546.16 693.304 1546.16 690.671C1546.16 688.039 1544.02 685.905 1541.39 685.905C1538.75 685.905 1536.62 688.039 1536.62 690.671C1536.62 693.304 1538.75 695.438 1541.39 695.438Z" fill="#4285F4"/>
<path d="M1536.62 686.381C1539.25 686.381 1541.39 684.247 1541.39 681.615C1541.39 678.982 1539.25 676.848 1536.62 676.848C1533.99 676.848 1531.85 678.982 1531.85 681.615C1531.85 684.247 1533.99 686.381 1536.62 686.381Z" fill="#4285F4"/>
<path d="M1534.71 655.876C1537.35 655.876 1539.48 653.742 1539.48 651.109C1539.48 648.477 1537.35 646.343 1534.71 646.343C1532.08 646.343 1529.94 648.477 1529.94 651.109C1529.94 653.742 1532.08 655.876 1534.71 655.876Z" fill="#4285F4"/>
<path d="M1533.76 655.876C1536.39 655.876 1538.53 653.742 1538.53 651.109C1538.53 648.477 1536.39 646.343 1533.76 646.343C1531.13 646.343 1528.99 648.477 1528.99 651.109C1528.99 653.742 1531.13 655.876 1533.76 655.876Z" fill="#4285F4"/>
<path d="M1536.62 654.922C1539.25 654.922 1541.39 652.788 1541.39 650.156C1541.39 647.523 1539.25 645.389 1536.62 645.389C1533.99 645.389 1531.85 647.523 1531.85 650.156C1531.85 652.788 1533.99 654.922 1536.62 654.922Z" fill="#4285F4"/>
<path d="M1541.39 655.399C1544.02 655.399 1546.16 653.265 1546.16 650.632C1546.16 648 1544.02 645.866 1541.39 645.866C1538.75 645.866 1536.62 648 1536.62 650.632C1536.62 653.265 1538.75 655.399 1541.39 655.399Z" fill="#4285F4"/>
<path d="M1546.16 676.848C1548.79 676.848 1550.93 674.714 1550.93 672.082C1550.93 669.449 1548.79 667.315 1546.16 667.315C1543.52 667.315 1541.39 669.449 1541.39 672.082C1541.39 674.714 1543.52 676.848 1546.16 676.848Z" fill="#4285F4"/>
<path d="M1550.93 679.232C1553.56 679.232 1555.69 677.098 1555.69 674.465C1555.69 671.833 1553.56 669.698 1550.93 669.698C1548.29 669.698 1546.16 671.833 1546.16 674.465C1546.16 677.098 1548.29 679.232 1550.93 679.232Z" fill="#4285F4"/>
<path d="M1551.4 683.998C1554.04 683.998 1556.17 681.864 1556.17 679.232C1556.17 676.599 1554.04 674.465 1551.4 674.465C1548.77 674.465 1546.63 676.599 1546.63 679.232C1546.63 681.864 1548.77 683.998 1551.4 683.998Z" fill="#4285F4"/>
<path d="M1555.69 662.549C1558.33 662.549 1560.46 660.415 1560.46 657.782C1560.46 655.15 1558.33 653.016 1555.69 653.016C1553.06 653.016 1550.93 655.15 1550.93 657.782C1550.93 660.415 1553.06 662.549 1555.69 662.549Z" fill="#4285F4"/>
<path d="M1556.17 655.399C1558.8 655.399 1560.94 653.265 1560.94 650.632C1560.94 648 1558.8 645.866 1556.17 645.866C1553.54 645.866 1551.4 648 1551.4 650.632C1551.4 653.265 1553.54 655.399 1556.17 655.399Z" fill="#4285F4"/>
<path d="M1560.46 645.389C1563.1 645.389 1565.23 643.255 1565.23 640.622C1565.23 637.99 1563.1 635.856 1560.46 635.856C1557.83 635.856 1555.69 637.99 1555.69 640.622C1555.69 643.255 1557.83 645.389 1560.46 645.389Z" fill="#4285F4"/>
<path d="M1568.09 640.623C1570.72 640.623 1572.86 638.489 1572.86 635.856C1572.86 633.224 1570.72 631.089 1568.09 631.089C1565.46 631.089 1563.32 633.224 1563.32 635.856C1563.32 638.489 1565.46 640.623 1568.09 640.623Z" fill="#4285F4"/>
<path d="M1574.77 639.193C1577.4 639.193 1579.54 637.059 1579.54 634.426C1579.54 631.794 1577.4 629.66 1574.77 629.66C1572.13 629.66 1570 631.794 1570 634.426C1570 637.059 1572.13 639.193 1574.77 639.193Z" fill="#4285F4"/>
<path d="M1576.67 615.36C1579.31 615.36 1581.44 613.226 1581.44 610.593C1581.44 607.961 1579.31 605.827 1576.67 605.827C1574.04 605.827 1571.91 607.961 1571.91 610.593C1571.91 613.226 1574.04 615.36 1576.67 615.36Z" fill="#4285F4"/>
<path d="M1586.69 607.734C1589.32 607.734 1591.46 605.599 1591.46 602.967C1591.46 600.334 1589.32 598.2 1586.69 598.2C1584.05 598.2 1581.92 600.334 1581.92 602.967C1581.92 605.599 1584.05 607.734 1586.69 607.734Z" fill="#4285F4"/>
<path d="M1591.46 607.734C1594.09 607.734 1596.23 605.599 1596.23 602.967C1596.23 600.334 1594.09 598.2 1591.46 598.2C1588.82 598.2 1586.69 600.334 1586.69 602.967C1586.69 605.599 1588.82 607.734 1591.46 607.734Z" fill="#4285F4"/>
<path d="M1602.9 610.593C1605.53 610.593 1607.67 608.459 1607.67 605.827C1607.67 603.194 1605.53 601.06 1602.9 601.06C1600.27 601.06 1598.13 603.194 1598.13 605.827C1598.13 608.459 1600.27 610.593 1602.9 610.593Z" fill="#4285F4"/>
<path d="M1603.38 614.883C1606.01 614.883 1608.15 612.749 1608.15 610.117C1608.15 607.484 1606.01 605.35 1603.38 605.35C1600.74 605.35 1598.61 607.484 1598.61 610.117C1598.61 612.749 1600.74 614.883 1603.38 614.883Z" fill="#4285F4"/>
<path d="M1610.05 621.556C1612.69 621.556 1614.82 619.422 1614.82 616.79C1614.82 614.157 1612.69 612.023 1610.05 612.023C1607.42 612.023 1605.29 614.157 1605.29 616.79C1605.29 619.422 1607.42 621.556 1610.05 621.556Z" fill="#4285F4"/>
<path d="M1615.3 602.967C1617.93 602.967 1620.07 600.833 1620.07 598.2C1620.07 595.568 1617.93 593.434 1615.3 593.434C1612.67 593.434 1610.53 595.568 1610.53 598.2C1610.53 600.833 1612.67 602.967 1615.3 602.967Z" fill="#4285F4"/>
<path d="M1615.78 593.434C1618.41 593.434 1620.54 591.3 1620.54 588.667C1620.54 586.035 1618.41 583.901 1615.78 583.901C1613.14 583.901 1611.01 586.035 1611.01 588.667C1611.01 591.3 1613.14 593.434 1615.78 593.434Z" fill="#4285F4"/>
<path d="M1610.53 581.041C1612.9 581.041 1614.82 579.974 1614.82 578.658C1614.82 577.341 1612.9 576.274 1610.53 576.274C1608.16 576.274 1606.24 577.341 1606.24 578.658C1606.24 579.974 1608.16 581.041 1610.53 581.041Z" fill="#4285F4"/>
<path d="M1598.13 573.891C1600.24 573.891 1601.95 572.184 1601.95 570.078C1601.95 567.972 1600.24 566.265 1598.13 566.265C1596.03 566.265 1594.32 567.972 1594.32 570.078C1594.32 572.184 1596.03 573.891 1598.13 573.891Z" fill="#4285F4"/>
<path d="M1605.76 561.975C1607.87 561.975 1609.58 560.267 1609.58 558.161C1609.58 556.055 1607.87 554.348 1605.76 554.348C1603.66 554.348 1601.95 556.055 1601.95 558.161C1601.95 560.267 1603.66 561.975 1605.76 561.975Z" fill="#4285F4"/>
<path d="M1590.98 552.442C1593.61 552.442 1595.75 550.308 1595.75 547.675C1595.75 545.043 1593.61 542.909 1590.98 542.909C1588.35 542.909 1586.21 545.043 1586.21 547.675C1586.21 550.308 1588.35 552.442 1590.98 552.442Z" fill="#4285F4"/>
<path d="M1615.3 58.6284C1617.93 58.6284 1620.07 56.4944 1620.07 53.8619C1620.07 51.2294 1617.93 49.0953 1615.3 49.0953C1612.67 49.0953 1610.53 51.2294 1610.53 53.8619C1610.53 56.4944 1612.67 58.6284 1615.3 58.6284Z" fill="#4285F4"/>
<path d="M1551.4 663.025C1554.04 663.025 1556.17 660.891 1556.17 658.259C1556.17 655.626 1554.04 653.492 1551.4 653.492C1548.77 653.492 1546.63 655.626 1546.63 658.259C1546.63 660.891 1548.77 663.025 1551.4 663.025Z" fill="#4285F4"/>
<path d="M1565.23 654.922C1567.86 654.922 1570 652.788 1570 650.156C1570 647.523 1567.86 645.389 1565.23 645.389C1562.6 645.389 1560.46 647.523 1560.46 650.156C1560.46 652.788 1562.6 654.922 1565.23 654.922Z" fill="#4285F4"/>
<path d="M1579.54 646.342C1582.17 646.342 1584.3 644.208 1584.3 641.576C1584.3 638.943 1582.17 636.809 1579.54 636.809C1576.9 636.809 1574.77 638.943 1574.77 641.576C1574.77 644.208 1576.9 646.342 1579.54 646.342Z" fill="#4285F4"/>
<path d="M1582.4 653.015C1585.03 653.015 1587.16 650.881 1587.16 648.249C1587.16 645.616 1585.03 643.482 1582.4 643.482C1579.76 643.482 1577.63 645.616 1577.63 648.249C1577.63 650.881 1579.76 653.015 1582.4 653.015Z" fill="#4285F4"/>
<path d="M1582.4 662.072C1585.03 662.072 1587.16 659.938 1587.16 657.305C1587.16 654.673 1585.03 652.539 1582.4 652.539C1579.76 652.539 1577.63 654.673 1577.63 657.305C1577.63 659.938 1579.76 662.072 1582.4 662.072Z" fill="#4285F4"/>
<path d="M1582.4 665.409C1585.03 665.409 1587.16 663.275 1587.16 660.642C1587.16 658.01 1585.03 655.875 1582.4 655.875C1579.76 655.875 1577.63 658.01 1577.63 660.642C1577.63 663.275 1579.76 665.409 1582.4 665.409Z" fill="#4285F4"/>
<path d="M1565.23 669.222C1567.86 669.222 1570 667.088 1570 664.455C1570 661.823 1567.86 659.689 1565.23 659.689C1562.6 659.689 1560.46 661.823 1560.46 664.455C1560.46 667.088 1562.6 669.222 1565.23 669.222Z" fill="#4285F4"/>
<path d="M1572.38 674.465C1575.02 674.465 1577.15 672.331 1577.15 669.698C1577.15 667.066 1575.02 664.932 1572.38 664.932C1569.75 664.932 1567.61 667.066 1567.61 669.698C1567.61 672.331 1569.75 674.465 1572.38 674.465Z" fill="#4285F4"/>
<path d="M1572.38 676.372C1575.02 676.372 1577.15 674.238 1577.15 671.605C1577.15 668.973 1575.02 666.839 1572.38 666.839C1569.75 666.839 1567.61 668.973 1567.61 671.605C1567.61 674.238 1569.75 676.372 1572.38 676.372Z" fill="#4285F4"/>
<path d="M1560.46 688.288C1563.1 688.288 1565.23 686.154 1565.23 683.521C1565.23 680.889 1563.1 678.755 1560.46 678.755C1557.83 678.755 1555.69 680.889 1555.69 683.521C1555.69 686.154 1557.83 688.288 1560.46 688.288Z" fill="#4285F4"/>
<path d="M1550.93 698.298C1553.56 698.298 1555.69 696.164 1555.69 693.531C1555.69 690.899 1553.56 688.765 1550.93 688.765C1548.29 688.765 1546.16 690.899 1546.16 693.531C1546.16 696.164 1548.29 698.298 1550.93 698.298Z" fill="#4285F4"/>
<path d="M1503.24 557.685C1505.87 557.685 1508.01 555.551 1508.01 552.918C1508.01 550.286 1505.87 548.152 1503.24 548.152C1500.61 548.152 1498.47 550.286 1498.47 552.918C1498.47 555.551 1500.61 557.685 1503.24 557.685Z" fill="#4285F4"/>
<path d="M1457.46 533.852C1460.1 533.852 1462.23 531.718 1462.23 529.086C1462.23 526.453 1460.1 524.319 1457.46 524.319C1454.83 524.319 1452.7 526.453 1452.7 529.086C1452.7 531.718 1454.83 533.852 1457.46 533.852Z" fill="#4285F4"/>
<path d="M1459.85 538.619C1462.48 538.619 1464.62 536.485 1464.62 533.852C1464.62 531.22 1462.48 529.086 1459.85 529.086C1457.21 529.086 1455.08 531.22 1455.08 533.852C1455.08 536.485 1457.21 538.619 1459.85 538.619Z" fill="#4285F4"/>
<path d="M1760.74 428.512C1763.37 428.512 1765.5 426.378 1765.5 423.745C1765.5 421.113 1763.37 418.979 1760.74 418.979C1758.1 418.979 1755.97 421.113 1755.97 423.745C1755.97 426.378 1758.1 428.512 1760.74 428.512Z" fill="#4285F4"/>
<path d="M1589.07 788.385C1591.71 788.385 1593.84 786.251 1593.84 783.619C1593.84 780.986 1591.71 778.852 1589.07 778.852C1586.44 778.852 1584.3 780.986 1584.3 783.619C1584.3 786.251 1586.44 788.385 1589.07 788.385Z" fill="#4285F4"/>
<path d="M1607.67 772.179C1610.3 772.179 1612.44 770.045 1612.44 767.413C1612.44 764.78 1610.3 762.646 1607.67 762.646C1605.04 762.646 1602.9 764.78 1602.9 767.413C1602.9 770.045 1605.04 772.179 1607.67 772.179Z" fill="#4285F4"/>
<path d="M1612.91 815.555C1615.55 815.555 1617.68 813.421 1617.68 810.788C1617.68 808.156 1615.55 806.021 1612.91 806.021C1610.28 806.021 1608.15 808.156 1608.15 810.788C1608.15 813.421 1610.28 815.555 1612.91 815.555Z" fill="#4285F4"/>
<path d="M1627.22 858.453C1629.85 858.453 1631.99 856.319 1631.99 853.687C1631.99 851.054 1629.85 848.92 1627.22 848.92C1624.59 848.92 1622.45 851.054 1622.45 853.687C1622.45 856.319 1624.59 858.453 1627.22 858.453Z" fill="#4285F4"/>
<path d="M1636.76 894.202C1639.39 894.202 1641.53 892.068 1641.53 889.436C1641.53 886.803 1639.39 884.669 1636.76 884.669C1634.12 884.669 1631.99 886.803 1631.99 889.436C1631.99 892.068 1634.12 894.202 1636.76 894.202Z" fill="#4285F4"/>
<path d="M1703.04 919.942C1705.67 919.942 1707.81 917.808 1707.81 915.175C1707.81 912.543 1705.67 910.409 1703.04 910.409C1700.4 910.409 1698.27 912.543 1698.27 915.175C1698.27 917.808 1700.4 919.942 1703.04 919.942Z" fill="#4285F4"/>
<path d="M1858.96 717.364C1861.6 717.364 1863.73 715.23 1863.73 712.597C1863.73 709.965 1861.6 707.831 1858.96 707.831C1856.33 707.831 1854.2 709.965 1854.2 712.597C1854.2 715.23 1856.33 717.364 1858.96 717.364Z" fill="#4285F4"/>
<path d="M1860.39 719.27C1863.03 719.27 1865.16 717.136 1865.16 714.504C1865.16 711.871 1863.03 709.737 1860.39 709.737C1857.76 709.737 1855.63 711.871 1855.63 714.504C1855.63 717.136 1857.76 719.27 1860.39 719.27Z" fill="#4285F4"/>
<path d="M1875.18 722.607C1877.81 722.607 1879.95 720.473 1879.95 717.841C1879.95 715.208 1877.81 713.074 1875.18 713.074C1872.54 713.074 1870.41 715.208 1870.41 717.841C1870.41 720.473 1872.54 722.607 1875.18 722.607Z" fill="#4285F4"/>
<path d="M1910.94 695.914C1913.57 695.914 1915.71 693.78 1915.71 691.148C1915.71 688.515 1913.57 686.381 1910.94 686.381C1908.31 686.381 1906.17 688.515 1906.17 691.148C1906.17 693.78 1908.31 695.914 1910.94 695.914Z" fill="#4285F4"/>
<path d="M1832.26 991.44C1834.89 991.44 1837.03 989.306 1837.03 986.673C1837.03 984.041 1834.89 981.907 1832.26 981.907C1829.63 981.907 1827.49 984.041 1827.49 986.673C1827.49 989.306 1829.63 991.44 1832.26 991.44Z" fill="#4285F4"/>
<path d="M1856.1 1010.51C1858.74 1010.51 1860.87 1008.37 1860.87 1005.74C1860.87 1003.11 1858.74 1000.97 1856.1 1000.97C1853.47 1000.97 1851.33 1003.11 1851.33 1005.74C1851.33 1008.37 1853.47 1010.51 1856.1 1010.51Z" fill="#4285F4"/>
<path d="M1903.79 1010.51C1906.42 1010.51 1908.56 1008.37 1908.56 1005.74C1908.56 1003.11 1906.42 1000.97 1903.79 1000.97C1901.15 1000.97 1899.02 1003.11 1899.02 1005.74C1899.02 1008.37 1901.15 1010.51 1903.79 1010.51Z" fill="#4285F4"/>
<path d="M1889.48 1010.51C1892.12 1010.51 1894.25 1008.37 1894.25 1005.74C1894.25 1003.11 1892.12 1000.97 1889.48 1000.97C1886.85 1000.97 1884.71 1003.11 1884.71 1005.74C1884.71 1008.37 1886.85 1010.51 1889.48 1010.51Z" fill="#4285F4"/>
<path d="M1858.96 1010.03C1861.6 1010.03 1863.73 1007.9 1863.73 1005.26C1863.73 1002.63 1861.6 1000.5 1858.96 1000.5C1856.33 1000.5 1854.2 1002.63 1854.2 1005.26C1854.2 1007.9 1856.33 1010.03 1858.96 1010.03Z" fill="#4285F4"/>
<path d="M1869.93 1005.26C1872.57 1005.26 1874.7 1003.13 1874.7 1000.5C1874.7 997.864 1872.57 995.729 1869.93 995.729C1867.3 995.729 1865.16 997.864 1865.16 1000.5C1865.16 1003.13 1867.3 1005.26 1869.93 1005.26Z" fill="#4285F4"/>
<path d="M1887.1 1010.51C1889.73 1010.51 1891.87 1008.37 1891.87 1005.74C1891.87 1003.11 1889.73 1000.97 1887.1 1000.97C1884.46 1000.97 1882.33 1003.11 1882.33 1005.74C1882.33 1008.37 1884.46 1010.51 1887.1 1010.51Z" fill="#4285F4"/>
<path d="M1898.54 1003.83C1901.18 1003.83 1903.31 1001.7 1903.31 999.066C1903.31 996.434 1901.18 994.3 1898.54 994.3C1895.91 994.3 1893.77 996.434 1893.77 999.066C1893.77 1001.7 1895.91 1003.83 1898.54 1003.83Z" fill="#4285F4"/>
<path d="M1913.32 995.73C1915.96 995.73 1918.09 993.596 1918.09 990.963C1918.09 988.331 1915.96 986.197 1913.32 986.197C1910.69 986.197 1908.56 988.331 1908.56 990.963C1908.56 993.596 1910.69 995.73 1913.32 995.73Z" fill="#4285F4"/>
<path d="M1922.38 1007.65C1925.02 1007.65 1927.15 1005.51 1927.15 1002.88C1927.15 1000.25 1925.02 998.113 1922.38 998.113C1919.75 998.113 1917.62 1000.25 1917.62 1002.88C1917.62 1005.51 1919.75 1007.65 1922.38 1007.65Z" fill="#4285F4"/>
<path d="M1866.12 1011.46C1868.75 1011.46 1870.89 1009.33 1870.89 1006.69C1870.89 1004.06 1868.75 1001.93 1866.12 1001.93C1863.48 1001.93 1861.35 1004.06 1861.35 1006.69C1861.35 1009.33 1863.48 1011.46 1866.12 1011.46Z" fill="#4285F4"/>
<path d="M1851.33 1008.6C1853.97 1008.6 1856.1 1006.47 1856.1 1003.83C1856.1 1001.2 1853.97 999.066 1851.33 999.066C1848.7 999.066 1846.57 1001.2 1846.57 1003.83C1846.57 1006.47 1848.7 1008.6 1851.33 1008.6Z" fill="#4285F4"/>
<path d="M1889.48 1010.51C1892.12 1010.51 1894.25 1008.37 1894.25 1005.74C1894.25 1003.11 1892.12 1000.97 1889.48 1000.97C1886.85 1000.97 1884.71 1003.11 1884.71 1005.74C1884.71 1008.37 1886.85 1010.51 1889.48 1010.51Z" fill="#4285F4"/>
<path opacity="0.5" d="M1360.67 853.21C1381.17 856.07 1407.87 865.603 1431.72 867.986M1360.19 838.434L1391.18 845.584L1424.56 847.967M1388.8 865.603C1384.03 865.603 1364.48 860.36 1360.67 860.36" stroke="#28A055" stroke-width="0.485" stroke-miterlimit="10" stroke-linecap="round"/>
<path d="M1346.36 863.22L1364.96 867.033" stroke="#28A055" stroke-width="0.6" stroke-miterlimit="10" stroke-linecap="round"/>
<path opacity="0.5" d="M1508.01 896.109L1531.85 898.969L1531.37 898.015" stroke="#28A055" stroke-width="0.485" stroke-miterlimit="10" stroke-linecap="round"/>
<path d="M1508.01 895.632L1527.56 896.109L1531.85 895.632" stroke="#28A055" stroke-width="0.6" stroke-miterlimit="10" stroke-linecap="round"/>
<path opacity="0.5" d="M1540.91 912.315H1556.17L1560.46 911.839M1593.84 574.368C1587.17 588.667 1570 601.06 1560.46 612.5" stroke="#28A055" stroke-width="0.485" stroke-miterlimit="10" stroke-linecap="round"/>
<path d="M1381.17 653.016C1395.95 643.483 1412.64 629.183 1419.79 614.883M1443.64 605.35L1431.72 616.79L1424.56 626.323" stroke="#28A055" stroke-width="0.6" stroke-miterlimit="10" stroke-linecap="round"/>
<path d="M1127 822L1117 311" stroke="#28A055"/>
</g>
<defs>
<clipPath id="clip0_43_7">
<rect width="803" height="1225" fill="white" transform="translate(1117)"/>
</clipPath>
</defs>
</svg>