<svg width="105" height="36" viewBox="0 0 105 36" fill="none" xmlns="http://www.w3.org/2000/svg">
<g clip-path="url(#clip0_16_161)">
<path d="M38.5084 30.5827C37.8448 30.5827 37.624 30.2879 37.624 29.6243V6.47913C37.624 5.81554 37.8448 5.52075 38.5084 5.52075H45.2527C51.9231 5.52075 54.1716 7.99006 54.1716 11.086V13.2605C54.1716 15.0662 53.3243 16.5044 51.4075 17.3888C53.9138 18.2731 55.3137 19.8211 55.3137 21.8488V24.761C55.3137 27.8569 53.0652 30.584 46.3949 30.584H38.5084V30.5827ZM42.5997 9.501V15.9136H45.3638C47.722 15.9136 49.233 15.0292 49.233 13.1495V11.8593C49.233 10.0166 47.722 9.501 45.2527 9.501H42.5997ZM42.5997 19.673V26.6024H46.3961C48.8655 26.6024 50.4134 25.7181 50.4134 23.8753V22.2164C50.4134 20.6314 48.8655 19.673 46.3961 19.673H42.5997Z" fill="white"/>
<path d="M63.7085 29.6242C63.7085 30.2878 63.4877 30.5826 62.8611 30.5826H59.8022C59.1386 30.5826 58.8809 30.2878 58.8809 29.6242V5.77844C58.8809 5.11485 59.1386 4.82007 59.8022 4.82007H62.8611C63.4877 4.82007 63.7085 5.11485 63.7085 5.77844V29.6242Z" fill="white"/>
<path d="M72.8237 8.94835C72.8237 9.57493 72.6029 9.83271 71.9763 9.83271H68.9175C68.2539 9.83271 67.9961 9.57493 67.9961 8.94835V5.77844C67.9961 5.11485 68.2539 4.82007 68.9175 4.82007H71.9763C72.6029 4.82007 72.8237 5.11485 72.8237 5.77844V8.94835ZM72.8237 29.6242C72.8237 30.2878 72.6029 30.5826 71.9763 30.5826H68.9175C68.2539 30.5826 67.9961 30.2878 67.9961 29.6242V13.1506C67.9961 12.4871 68.2539 12.2293 68.9175 12.2293H71.9763C72.6029 12.2293 72.8237 12.4871 72.8237 13.1506V29.6255V29.6242Z" fill="white"/>
<path d="M91.5113 29.6612C91.8061 30.1041 91.6951 30.5826 91.0327 30.5826H87.7161C87.0895 30.5826 86.7207 30.1041 86.4259 29.6612L83.0352 24.6486L79.7926 29.6612C79.4978 30.1041 79.166 30.5826 78.5024 30.5826H75.5546C74.928 30.5826 74.817 30.1041 75.1118 29.6612L80.751 21.2209L75.3695 13.1494C75.0377 12.6708 75.1488 12.228 75.8123 12.228H79.129C79.7926 12.228 80.1244 12.6338 80.4932 13.1494L83.7001 17.9413L86.722 13.1494C87.0538 12.6338 87.4226 12.228 88.0492 12.228H90.997C91.6236 12.228 91.7703 12.6708 91.4398 13.1494L85.9857 21.3677L91.5139 29.66L91.5113 29.6612Z" fill="white"/>
<path d="M103.673 12.3021C104.299 12.3021 104.594 12.5228 104.594 13.1494V15.2129C104.594 15.8765 104.299 16.1343 103.673 16.1343H100.319V24.6116C100.319 25.9758 101.204 26.6024 103.267 26.6024H104.077C104.741 26.6024 104.999 26.8602 104.999 27.5237V29.6613C104.999 30.3249 104.741 30.5826 104.077 30.5826H102.529C97.1122 30.5826 95.4533 28.7399 95.4533 25.1284V16.1356H93.6475C93.021 16.1356 92.7632 15.8778 92.7632 15.2142V13.3715C92.7632 12.7449 93.021 12.5611 93.6475 12.4871L95.3422 12.3033H95.4533V8.76463C95.4533 8.10104 95.7111 7.84326 96.3746 7.84326H99.4335C100.097 7.84326 100.318 8.10104 100.318 8.76463V12.3033H103.672L103.673 12.3021Z" fill="white"/>
<path d="M22.3564 17.3082C24.6751 16.3205 27.1406 13.9035 27.1406 9.80843C27.1406 3.63961 22.9944 0.284668 15.2483 0.284668H12.6616V17.3082H22.3564Z" fill="#FD4077"/>
<path d="M9.69604 18.7542H0V35.7152H9.69604V18.7542Z" fill="#1999E5"/>
<path d="M0 0.284668V18.7541L12.6618 0.284668H0Z" fill="#FD7728"/>
<path d="M22.3563 17.3083L9.6958 35.7153H16.1364C23.7358 35.7153 28.1767 32.0145 28.1767 25.7474C28.1767 21.5043 25.71 18.5424 22.3563 17.3083Z" fill="#5D50BC"/>
</g>
<defs>
<clipPath id="clip0_16_161">
<rect width="105" height="35.4305" fill="white" transform="translate(0 0.284668)"/>
</clipPath>
</defs>
</svg>
