<?xml version="1.0" encoding="UTF-8"?>
<svg id="Layer_1" data-name="Layer 1" xmlns="http://www.w3.org/2000/svg" viewBox="0 0 1000 157.38">
  <defs>
    <style>
      .cls-1 {
        fill: #dad1eb;
      }
    </style>
  </defs>
  <g>
    <polygon class="cls-1" points="144.93 0 129.55 0 88.23 118.55 112.52 118.55 144.93 23.36 144.93 154.72 167.58 154.72 167.58 20.78 167.58 0 144.93 0"/>
    <polygon class="cls-1" points="22.66 0 0 0 0 20.78 0 154.72 22.66 154.72 22.66 23.36 55.06 118.55 79.35 118.55 38.03 0 22.66 0"/>
  </g>
  <path class="cls-1" d="M240.96,157.38c-10.61,0-19.97-2.54-28.07-7.63-8.11-5.08-14.41-12.01-18.9-20.78-4.5-8.77-6.74-18.75-6.74-29.95s2.28-21.36,6.85-30.06c4.57-8.69,10.9-15.58,19.01-20.67,8.1-5.08,17.46-7.63,28.07-7.63,8.69,0,16.36,1.77,22.99,5.3,6.63,3.54,11.79,8.4,15.47,14.59l1.55-17.24h20.56v111.4h-20.33l-1.77-17.24c-3.39,5.16-8.25,9.76-14.59,13.82-6.34,4.05-14.37,6.08-24.09,6.08ZM244.5,138.15c6.92,0,13.04-1.62,18.35-4.86,5.3-3.24,9.39-7.81,12.27-13.7,2.87-5.89,4.31-12.74,4.31-20.56s-1.44-14.62-4.31-20.45c-2.87-5.82-6.96-10.39-12.27-13.7-5.31-3.32-11.42-4.97-18.35-4.97s-12.6,1.66-17.9,4.97-9.43,7.88-12.38,13.7c-2.95,5.82-4.42,12.64-4.42,20.45s1.47,14.66,4.42,20.56c2.95,5.9,7.07,10.46,12.38,13.7,5.3,3.24,11.27,4.86,17.9,4.86Z"/>
  <path class="cls-1" d="M376.14,157.38c-10.76,0-20.34-2.47-28.73-7.41-8.4-4.94-15-11.75-19.78-20.44-4.79-8.69-7.18-18.79-7.18-30.28s2.39-21.84,7.18-30.61c4.79-8.76,11.38-15.62,19.78-20.56,8.4-4.94,17.98-7.41,28.73-7.41,13.56,0,24.9,3.54,34.04,10.61,9.13,7.07,14.95,16.65,17.46,28.73h-22.99c-1.47-6.48-4.83-11.49-10.06-15.03-5.23-3.54-11.46-5.3-18.68-5.3-5.9,0-11.35,1.51-16.36,4.53-5.01,3.02-9.03,7.44-12.05,13.26-3.02,5.82-4.53,13.01-4.53,21.55,0,6.34.88,11.97,2.65,16.91,1.77,4.94,4.16,9.1,7.18,12.49,3.02,3.39,6.52,5.93,10.5,7.63,3.98,1.7,8.18,2.54,12.6,2.54,4.86,0,9.24-.77,13.15-2.32,3.9-1.55,7.22-3.87,9.95-6.96,2.73-3.09,4.6-6.78,5.64-11.05h22.99c-2.51,11.79-8.33,21.26-17.46,28.4-9.14,7.15-20.48,10.72-34.04,10.72Z"/>
  <path class="cls-1" d="M445.68,154.72V0h22.1v61.45c3.68-6.48,8.8-11.57,15.36-15.25,6.55-3.68,13.81-5.53,21.77-5.53,8.84,0,16.43,1.81,22.77,5.42,6.33,3.61,11.2,8.99,14.59,16.14,3.39,7.15,5.08,16.1,5.08,26.85v65.65h-21.88v-63.22c0-10.46-2.21-18.38-6.63-23.76-4.42-5.38-10.98-8.07-19.67-8.07-5.9,0-11.2,1.4-15.91,4.2-4.72,2.8-8.48,6.89-11.27,12.27-2.8,5.38-4.2,11.9-4.2,19.56v59.02h-22.1Z"/>
  <path class="cls-1" d="M619.5,157.38c-10.61,0-20.04-2.43-28.29-7.29-8.25-4.86-14.7-11.64-19.34-20.33-4.64-8.69-6.96-18.79-6.96-30.28s2.32-22.06,6.96-30.83c4.64-8.76,11.09-15.62,19.34-20.56,8.25-4.94,17.83-7.41,28.73-7.41s20.26,2.43,28.07,7.29c7.81,4.86,13.85,11.31,18.12,19.34,4.27,8.03,6.41,16.91,6.41,26.63,0,1.47-.04,3.06-.11,4.75-.08,1.7-.19,3.57-.33,5.64h-91.06v-15.69h69.4c-.44-9.28-3.54-16.54-9.28-21.77-5.75-5.23-12.9-7.85-21.44-7.85-6.04,0-11.57,1.36-16.58,4.09-5.01,2.73-9.03,6.71-12.05,11.94-3.02,5.23-4.53,11.83-4.53,19.78v6.19c0,8.25,1.51,15.22,4.53,20.89,3.02,5.67,7.03,9.95,12.05,12.82,5.01,2.87,10.46,4.31,16.36,4.31,7.07,0,12.89-1.55,17.46-4.64,4.57-3.09,7.96-7.29,10.17-12.6h22.1c-1.92,6.78-5.16,12.86-9.73,18.24-4.57,5.38-10.2,9.61-16.91,12.71-6.71,3.09-14.41,4.64-23.1,4.64Z"/>
  <path class="cls-1" d="M690.69,154.72V43.32h19.89l1.33,19.01c3.54-6.63,8.54-11.9,15.03-15.8,6.48-3.9,13.92-5.86,22.32-5.86,8.84,0,16.43,1.77,22.77,5.3,6.33,3.54,11.27,8.88,14.81,16.03,3.54,7.15,5.31,16.1,5.31,26.86v65.87h-22.1v-63.66c0-10.31-2.29-18.12-6.85-23.43-4.57-5.3-11.2-7.96-19.89-7.96-5.75,0-10.91,1.36-15.47,4.09-4.57,2.73-8.22,6.74-10.94,12.05-2.73,5.3-4.09,11.79-4.09,19.45v59.46h-22.1Z"/>
  <path class="cls-1" d="M857.63,154.72c-7.07,0-13.19-1.11-18.35-3.32-5.16-2.21-9.14-5.89-11.94-11.05-2.8-5.16-4.2-12.16-4.2-21v-57.25h-19.23v-18.79h19.23l2.65-27.85h19.45v27.85h31.61v18.79h-31.61v57.47c0,6.34,1.33,10.65,3.98,12.93,2.65,2.29,7.22,3.43,13.7,3.43h12.82v18.79h-18.12Z"/>
  <path class="cls-1" d="M939.22,157.38c-10.61,0-19.97-2.54-28.07-7.63-8.11-5.08-14.41-12.01-18.9-20.78-4.5-8.77-6.74-18.75-6.74-29.95s2.28-21.36,6.85-30.06c4.57-8.69,10.9-15.58,19.01-20.67,8.1-5.08,17.46-7.63,28.07-7.63,8.69,0,16.36,1.77,22.99,5.3,6.63,3.54,11.79,8.4,15.47,14.59l1.55-17.24h20.56v111.4h-20.33l-1.77-17.24c-3.39,5.16-8.25,9.76-14.59,13.82-6.34,4.05-14.37,6.08-24.09,6.08ZM942.75,138.15c6.92,0,13.04-1.62,18.35-4.86,5.3-3.24,9.39-7.81,12.27-13.7,2.87-5.89,4.31-12.74,4.31-20.56s-1.44-14.62-4.31-20.45c-2.87-5.82-6.96-10.39-12.27-13.7-5.31-3.32-11.42-4.97-18.35-4.97s-12.6,1.66-17.9,4.97c-5.31,3.32-9.43,7.88-12.38,13.7-2.95,5.82-4.42,12.64-4.42,20.45s1.47,14.66,4.42,20.56c2.95,5.9,7.07,10.46,12.38,13.7,5.3,3.24,11.27,4.86,17.9,4.86Z"/>
</svg>