<svg width="500" height="63" viewBox="0 0 500 63" fill="none" xmlns="http://www.w3.org/2000/svg">
<g clip-path="url(#clip0_1_2)">
<path d="M79.0516 21.5028H74.2605L81.5053 41.8379L89.3942 21.5028H84.3683V19.3991H94.5365V21.5028H91.8479L77.1817 57.7892C76.1299 60.3602 74.5518 62.5221 71.6302 62.5221C69.41 62.5219 68.1252 60.9444 68.1252 59.1916C68.1253 58.3152 68.4749 57.3216 69.2928 56.6205L74.6106 58.4904L79.2272 46.9209L69.5265 21.5028H66.7809V19.3991H79.0516V21.5028Z" fill="black"/>
<path fill-rule="evenodd" clip-rule="evenodd" d="M390.195 23.2563H383.592C384.644 24.717 385.228 26.4115 385.228 28.2812C385.228 33.7152 380.203 37.7468 374.652 37.747C372.782 37.747 370.97 37.28 369.392 36.462V43.3567H381.429C386.805 43.3567 390.369 45.5771 390.369 49.9595C390.369 57.2635 381.546 62.5221 372.665 62.5221C366.471 62.522 361.387 60.0099 361.387 55.5692C361.387 52.0048 365.244 49.3754 368.517 47.7977V46.629C366.997 45.9863 365.419 44.584 365.419 42.3054C365.419 40.0851 366.88 38.0398 368.867 36.1701C366.062 34.534 364.075 31.6702 364.075 28.2812C364.076 22.847 369.101 18.8153 374.652 18.8153C377.632 18.8154 380.495 19.9839 382.423 21.9121L390.195 18.056V23.2563ZM371.38 47.3302C368.633 48.4404 365.77 50.6607 365.77 54.2249C365.77 57.7893 369.276 60.0684 375.177 60.0684C381.079 60.0683 386.63 56.7958 386.63 51.8876C386.629 48.4403 383.65 47.3302 379.209 47.3302H371.38ZM374.652 20.7434C371.146 20.7434 368.633 24.0741 368.633 28.2812C368.633 32.4883 371.146 35.8189 374.652 35.8189C378.158 35.8186 380.67 32.4881 380.67 28.2812C380.67 24.0742 378.158 20.7437 374.652 20.7434Z" fill="black"/>
<path d="M113.204 27.9893C110.808 23.8406 108.236 21.0353 105.081 21.0353C102.744 21.0354 100.933 22.4966 100.933 24.9507C100.933 31.0274 114.197 29.5083 114.197 37.9807C114.197 42.6553 109.872 46.1615 104.672 46.1615C101.341 46.1614 98.1856 44.8171 96.6664 43.1811V36.4038C98.7699 41.7791 102.276 43.824 105.373 43.8242C108.061 43.8242 110.281 42.1298 110.281 39.2668C110.281 32.7224 97.2513 34.6502 97.2513 26.1775C97.2514 21.62 101.049 18.8154 105.081 18.8153C107.185 18.8153 109.172 19.8088 110.341 20.919L113.204 18.7572V27.9893Z" fill="black"/>
<path d="M149.212 18.8153C153.478 18.8154 155.815 20.6267 155.815 23.0808C155.815 24.8336 154.238 26.1779 152.485 26.2949L148.979 20.6852C143.837 20.7437 138.752 25.3015 138.752 31.9628C138.753 38.4484 143.077 42.3634 148.394 42.3636C151.783 42.3636 154.705 40.786 156.516 38.0981C155.64 42.9477 151.608 46.1614 146.583 46.1615C140.097 46.1615 134.78 40.9022 134.78 33.5397C134.78 25.0672 141.733 18.8153 149.212 18.8153Z" fill="black"/>
<path d="M275.098 20.1003H285.323L283.629 22.6715H275.098V37.2214C275.098 41.1362 277.318 42.7729 280.123 42.7729C282.402 42.7729 284.33 42.0126 286.2 40.0844C284.739 44.1162 281.642 46.1615 277.844 46.1615C274.163 46.1613 270.949 43.8235 270.949 39.2076L271.241 23.2563L266.392 21.8539L275.098 14.1987V20.1003Z" fill="black"/>
<path fill-rule="evenodd" clip-rule="evenodd" d="M300.954 18.8153C307.323 18.8156 311.121 23.7239 311.179 29.6254H291.897C291.838 30.0927 291.838 30.6185 291.838 31.1442C291.838 37.747 296.689 42.188 302.123 42.188C305.745 42.1879 308.725 41.0193 310.946 37.9226C309.777 43.4736 305.511 46.1615 300.661 46.1615C293.708 46.1614 288.45 40.4348 288.45 32.7803C288.45 25.4179 294.118 18.8153 300.954 18.8153ZM300.136 21.4446C296.63 21.4447 293.475 23.7234 292.306 27.6381H306.622C306.447 23.8402 303.875 21.4446 300.136 21.4446Z" fill="black"/>
<path fill-rule="evenodd" clip-rule="evenodd" d="M405.379 18.8153C411.748 18.8156 415.546 23.7239 415.604 29.6254H396.321C396.263 30.0927 396.263 30.6185 396.263 31.1442C396.263 37.747 401.114 42.188 406.548 42.188C410.17 42.1879 413.15 41.0193 415.37 37.9226C414.202 43.4736 409.936 46.1615 405.086 46.1615C398.133 46.1614 392.875 40.4348 392.875 32.7803C392.875 25.4179 398.542 18.8153 405.379 18.8153ZM404.56 21.4446C401.055 21.4447 397.899 23.7234 396.731 27.6381H411.047C410.871 23.8402 408.3 21.4446 404.56 21.4446Z" fill="black"/>
<path d="M466.766 18.8153C471.032 18.8154 473.369 20.6267 473.369 23.0808C473.369 24.8336 471.792 26.1779 470.039 26.2949L466.533 20.6852C461.391 20.7437 456.306 25.3015 456.306 31.9628C456.307 38.4484 460.631 42.3634 465.948 42.3636C469.337 42.3636 472.259 40.786 474.07 38.0981C473.194 42.9477 469.162 46.1614 464.137 46.1615C457.651 46.1615 452.334 40.9022 452.334 33.5397C452.334 25.0672 459.287 18.8153 466.766 18.8153Z" fill="black"/>
<path fill-rule="evenodd" clip-rule="evenodd" d="M489.775 18.8153C496.144 18.8156 499.942 23.7239 500 29.6254H480.717C480.659 30.0927 480.659 30.6185 480.659 31.1442C480.659 37.747 485.509 42.188 490.943 42.188C494.566 42.1879 497.546 41.0193 499.766 37.9226C498.598 43.4736 494.332 46.1615 489.482 46.1615C482.529 46.1614 477.27 40.4348 477.27 32.7803C477.27 25.4179 482.938 18.8153 489.775 18.8153ZM488.956 21.4446C485.45 21.4447 482.295 23.7234 481.126 27.6381H495.443C495.267 23.8402 492.696 21.4446 488.956 21.4446Z" fill="black"/>
<path fill-rule="evenodd" clip-rule="evenodd" d="M172.337 18.8153C175.434 18.8153 177.947 20.9187 177.947 25.0088V39.0913C177.947 41.5453 178.998 42.6555 180.81 42.6555C181.92 42.6555 183.089 42.1293 183.848 41.0775C183.79 44.0574 181.394 46.0439 178.59 46.0441C176.077 46.0441 174.558 44.4669 173.973 42.4217H172.746C171.169 43.8825 168.714 45.986 165.501 45.986C162.637 45.9859 159.95 43.999 159.95 40.61C159.95 36.8122 163.514 34.6501 167.195 33.2478L173.915 30.6767V26.7032C173.915 23.3142 171.694 20.2764 165.501 22.5551V27.6381H159.599C161.703 22.9052 167.37 18.8154 172.337 18.8153ZM170.058 33.8909C166.26 35.3516 164.274 36.6957 164.274 39.5587C164.274 41.7206 165.91 42.8891 168.13 42.8892C170.467 42.8892 172.279 41.721 173.915 40.2018V32.4303L170.058 33.8909Z" fill="black"/>
<path d="M15.7186 5.25855C25.3597 5.25863 32.1373 8.8237 32.1373 16.6535C32.1371 23.8988 25.009 27.638 18.5816 27.6381L14.6081 25.7682C23.139 25.7682 27.2879 22.2628 27.288 16.6535C27.288 10.4013 22.613 7.53777 15.6012 7.53777H10.8101V43.2985H18.3479V45.5766H0V43.2985H6.13534V7.53777H0V5.25855H15.7186Z" fill="black"/>
<path d="M44.0689 23.1971H45.5295C47.633 21.2104 50.3796 18.8154 54.2359 18.8153C58.9689 18.8153 61.1306 22.2631 61.1306 27.2299V43.4741H65.4553V45.5766H52.5416V43.4741H56.807V28.3986C56.807 24.3668 54.7035 22.3214 51.1392 22.3214C48.3344 22.3214 45.705 24.1914 44.0689 25.8275V43.4741H48.3925V45.5766H35.4206V43.4741H39.7453V6.13534L34.1937 3.68164L44.0689 0V23.1971Z" fill="black"/>
<path d="M126.929 43.4741H131.253V45.5766H118.34V43.4741H122.606V24.7169L117.464 21.9121L126.929 18.2304V43.4741Z" fill="black"/>
<path d="M193.973 43.4741H198.296V45.5766H185.324V43.4741H189.649V6.13534L184.097 3.68164L193.973 0V43.4741Z" fill="black"/>
<path d="M230.702 7.53777H224.567V43.2985H230.702V45.5766H213.757V43.2985H219.892V7.53777H213.757V5.25855H230.702V7.53777Z" fill="black"/>
<path d="M243.109 23.1971H244.57C246.732 21.2105 249.478 18.8155 253.334 18.8153C258.067 18.8153 260.23 22.2631 260.23 27.2299V43.4741H264.496V45.5766H251.582V43.4741H255.905V28.3986C255.905 24.3668 253.802 22.3214 250.179 22.3214C247.375 22.3214 244.804 24.1914 243.109 25.8275V43.4741H247.433V45.5766H234.52V43.4741H238.786V24.7169L233.643 21.9121L243.109 18.2304V23.1971Z" fill="black"/>
<path d="M323.048 43.4741H327.372V45.5766H314.4V43.4741H318.725V6.13534L313.173 3.68164L323.048 0V43.4741Z" fill="black"/>
<path d="M339.14 43.4741H343.464V45.5766H330.492V43.4741H334.817V6.13534L329.265 3.68164L339.14 0V43.4741Z" fill="black"/>
<path d="M355.466 43.4741H359.789V45.5766H346.877V43.4741H351.142V24.7169L346 21.9121L355.466 18.2304V43.4741Z" fill="black"/>
<path d="M427.707 23.1971H429.168C431.329 21.2105 434.076 18.8155 437.932 18.8153C442.665 18.8153 444.828 22.2631 444.828 27.2299V43.4741H449.093V45.5766H436.18V43.4741H440.503V28.3986C440.503 24.3668 438.4 22.3214 434.777 22.3214C431.973 22.3214 429.402 24.1914 427.707 25.8275V43.4741H432.031V45.5766H419.118V43.4741H423.383V24.7169L418.241 21.9121L427.707 18.2304V23.1971Z" fill="black"/>
<path d="M124.183 4.79107C125.994 4.79107 127.397 6.25227 127.397 8.00524C127.397 9.75819 125.994 11.1602 124.183 11.1602C122.372 11.16 120.97 9.75808 120.97 8.00524C120.97 6.25238 122.372 4.79126 124.183 4.79107Z" fill="black"/>
<path d="M352.719 4.79107C354.53 4.79107 355.933 6.25227 355.933 8.00524C355.933 9.75819 354.53 11.1602 352.719 11.1602C350.908 11.16 349.506 9.75808 349.506 8.00524C349.506 6.25238 350.908 4.79126 352.719 4.79107Z" fill="black"/>
</g>
<defs>
<clipPath id="clip0_1_2">
<rect width="500" height="63" fill="white"/>
</clipPath>
</defs>
</svg>
