<svg width="151" height="14" viewBox="0 0 151 14" fill="none" xmlns="http://www.w3.org/2000/svg">
<g clip-path="url(#clip0_8635_191)">
<path d="M53.8615 -0.19458H39.9365V2.59542H53.8615V-0.19458Z" fill="#FAAA19"/>
<path d="M33.6788 -0.19458H19.7539V2.59542H33.6788V-0.19458Z" fill="#FAAA19"/>
<path d="M82.3859 -0.19458H68.4609V2.59542H82.3859V-0.19458Z" fill="#FAAA19"/>
<path d="M82.3859 10.9653H68.4609V13.7553H82.3859V10.9653Z" fill="#FAAA19"/>
<path d="M109.532 -0.19458H95.6067V2.59542H109.532V-0.19458Z" fill="#FAAA19"/>
<path d="M150.588 -0.19458H136.663V2.59542H150.588V-0.19458Z" fill="#FAAA19"/>
<path d="M109.532 5.3855H95.6067V8.1755H109.532V5.3855Z" fill="#FAAA19"/>
<path d="M109.532 10.9653H95.6067V13.7553H109.532V10.9653Z" fill="#FAAA19"/>
<path d="M53.8615 5.38525H39.9365V8.17525H53.8615V5.38525Z" fill="#FAAA19"/>
<path d="M33.6788 5.38525H19.7539V8.17525H33.6788V5.38525Z" fill="#FAAA19"/>
<path d="M62.202 -0.19458H59.417V13.7554H62.202V-0.19458Z" fill="#FAAA19"/>
<path d="M90.7401 -0.19458H87.9551V13.7554H90.7401V-0.19458Z" fill="#FAAA19"/>
<path d="M145.018 5.3855H142.233V13.7555H145.018V5.3855Z" fill="#FAAA19"/>
<path d="M117.887 -0.19458H115.102V13.7554H117.887V-0.19458Z" fill="#FAAA19"/>
<path d="M131.107 -0.19458H128.323V13.7554H131.107V-0.19458Z" fill="#FAAA19"/>
<path d="M71.2459 -0.19458H68.4609V13.7554H71.2459V-0.19458Z" fill="#FAAA19"/>
<path d="M42.7215 5.38525H39.9365V13.7553H42.7215V5.38525Z" fill="#FAAA19"/>
<path d="M22.5389 5.38525H19.7539V13.7553H22.5389V5.38525Z" fill="#FAAA19"/>
<path d="M128.323 10.2604L117.887 -0.19458V3.28542L128.323 13.7404V10.2604Z" fill="#FAAA19"/>
<path d="M13.4943 10.9653H-0.430664V13.7553H13.4943V10.9653Z" fill="#FAAA19"/>
<path d="M13.4943 -0.19458H-0.430664V2.59542H13.4943V-0.19458Z" fill="#FAAA19"/>
<path d="M13.4943 5.3855H-0.430664V8.1755H13.4943V5.3855Z" fill="#FAAA19"/>
</g>
<defs>
<clipPath id="clip0_8635_191">
<rect width="151" height="14" fill="white"/>
</clipPath>
</defs>
</svg>
